<svg width="299" height="164" viewBox="0 0 299 164" fill="none" xmlns="http://www.w3.org/2000/svg">
<path d="M18.055 82.312C-0.389988 93.124 77.695 106.84 77.695 106.84C80.5084 110.13 79.7283 112.894 73.327 119.776L0.751007 89.032C4.82104 83.7834 4.30961 80.8406 0.751007 75.592L73.327 44.8481C71.9193 51.4679 72.5493 54.4645 77.695 57.7841C77.695 57.7841 36.5 71.5 18.055 82.312ZM98.6031 163.624C99.4264 158.012 82.6431 163.624 82.6431 163.624C82.6431 163.624 138.69 -4.49995 139.595 1.00003C140.5 6.50002 155.219 1.00003 155.219 1.00003C116.311 65.424 97.7798 169.236 98.6031 163.624ZM160.056 57.7841C155.688 53.5681 164.424 44.8481 164.424 44.8481L237 75.592C239.932 82.1028 239.875 85.0213 237 89.032L164.424 119.776C156.634 116.918 157.116 113.567 160.056 106.84C160.056 106.84 203.5 99 219.696 82.312C235.892 65.624 164.424 62 160.056 57.7841Z" fill="#12F7D6"/>
<path d="M114.528 139.168C114.296 139.168 114.12 139.096 114 138.952C113.888 138.808 113.832 138.612 113.832 138.364C113.832 138.164 113.84 137.992 113.856 137.848C113.872 137.704 113.904 137.552 113.952 137.392C114 137.224 114.06 137.02 114.132 136.78C114.212 136.532 114.312 136.216 114.432 135.832C114.504 135.608 114.592 135.316 114.696 134.956C114.808 134.588 114.92 134.188 115.032 133.756C115.144 133.316 115.236 132.876 115.308 132.436C115.388 131.988 115.428 131.576 115.428 131.2C115.428 130.944 115.372 130.708 115.26 130.492C114.516 131.228 113.812 132.188 113.148 133.372C112.492 134.556 111.908 135.932 111.396 137.5C111.244 137.892 111.068 138.156 110.868 138.292C110.668 138.42 110.476 138.484 110.292 138.484C110.236 138.484 110.152 138.452 110.04 138.388C109.928 138.316 109.824 138.188 109.728 138.004C109.632 137.82 109.584 137.56 109.584 137.224C109.584 137.144 109.604 137.044 109.644 136.924C109.684 136.796 109.744 136.66 109.824 136.516C109.896 136.1 109.948 135.656 109.98 135.184C110.02 134.704 110.044 134.228 110.052 133.756C110.068 133.276 110.076 132.828 110.076 132.412C110.076 132.092 110.052 131.812 110.004 131.572C109.612 132.068 109.24 132.668 108.888 133.372C108.536 134.076 108.216 134.824 107.928 135.616C107.648 136.408 107.416 137.184 107.232 137.944C107.184 138.128 107.128 138.3 107.064 138.46C107 138.612 106.904 138.736 106.776 138.832C106.656 138.92 106.48 138.964 106.248 138.964C105.992 138.964 105.8 138.86 105.672 138.652C105.544 138.444 105.48 138.168 105.48 137.824C105.48 137.56 105.536 137.22 105.648 136.804C105.76 136.38 105.912 135.92 106.104 135.424C106.296 134.92 106.516 134.408 106.764 133.888C107.02 133.36 107.288 132.852 107.568 132.364C107.848 131.876 108.132 131.44 108.42 131.056C108.716 130.664 108.996 130.356 109.26 130.132C109.532 129.9 109.78 129.784 110.004 129.784C110.012 129.784 110.024 129.784 110.04 129.784C110.216 129.784 110.376 129.8 110.52 129.832C110.672 129.856 110.804 129.94 110.916 130.084C111.036 130.22 111.14 130.448 111.228 130.768C111.316 131.088 111.392 131.54 111.456 132.124C111.472 132.268 111.484 132.44 111.492 132.64C111.5 132.832 111.504 133.032 111.504 133.24C111.768 132.648 112.056 132.092 112.368 131.572C112.688 131.052 113.016 130.592 113.352 130.192C113.696 129.792 114.036 129.48 114.372 129.256C114.708 129.032 115.02 128.92 115.308 128.92C115.644 128.92 115.956 129.004 116.244 129.172C116.532 129.332 116.764 129.604 116.94 129.988C117.116 130.372 117.204 130.896 117.204 131.56C117.204 132.264 117.14 132.948 117.012 133.612C116.884 134.268 116.724 134.888 116.532 135.472C116.34 136.056 116.148 136.592 115.956 137.08C115.764 137.56 115.604 137.976 115.476 138.328C115.372 138.576 115.252 138.78 115.116 138.94C114.98 139.092 114.784 139.168 114.528 139.168ZM121.078 139.456C120.822 139.456 120.59 139.384 120.382 139.24C120.174 139.104 120.01 138.924 119.89 138.7C119.77 138.468 119.71 138.22 119.71 137.956C119.71 137.46 119.818 136.976 120.034 136.504C120.258 136.032 120.55 135.584 120.91 135.16C121.27 134.736 121.662 134.348 122.086 133.996C122.518 133.636 122.946 133.328 123.37 133.072C123.802 132.816 124.194 132.616 124.546 132.472C124.906 132.328 125.186 132.256 125.386 132.256C125.618 132.256 125.806 132.308 125.95 132.412C126.102 132.508 126.178 132.66 126.178 132.868C126.178 132.932 126.162 132.984 126.13 133.024C126.234 133.048 126.318 133.108 126.382 133.204C126.446 133.3 126.478 133.444 126.478 133.636C126.478 133.716 126.458 133.924 126.418 134.26C126.378 134.596 126.334 135.004 126.286 135.484C126.246 135.964 126.226 136.464 126.226 136.984C126.226 137.064 126.238 137.136 126.262 137.2C126.286 137.256 126.338 137.284 126.418 137.284C126.738 137.284 127.062 137.22 127.39 137.092C127.726 136.956 128.05 136.792 128.362 136.6C128.682 136.4 128.97 136.204 129.226 136.012C129.49 135.812 129.71 135.648 129.886 135.52C130.07 135.384 130.19 135.316 130.246 135.316C130.518 135.316 130.654 135.452 130.654 135.724C130.654 135.796 130.566 135.948 130.39 136.18C130.222 136.404 129.99 136.664 129.694 136.96C129.398 137.248 129.066 137.536 128.698 137.824C128.338 138.104 127.962 138.336 127.57 138.52C127.186 138.704 126.814 138.796 126.454 138.796C126.014 138.796 125.678 138.692 125.446 138.484C125.222 138.276 125.062 137.996 124.966 137.644C124.878 137.284 124.83 136.88 124.822 136.432C124.414 137.016 123.99 137.536 123.55 137.992C123.118 138.44 122.69 138.796 122.266 139.06C121.842 139.324 121.446 139.456 121.078 139.456ZM125.326 133.444C124.542 133.82 123.838 134.252 123.214 134.74C122.59 135.22 122.094 135.724 121.726 136.252C121.366 136.78 121.186 137.288 121.186 137.776C121.186 137.912 121.25 137.98 121.378 137.98C121.53 137.98 121.73 137.892 121.978 137.716C122.234 137.54 122.51 137.308 122.806 137.02C123.102 136.724 123.398 136.396 123.694 136.036C123.99 135.668 124.266 135.292 124.522 134.908C124.778 134.524 124.982 134.156 125.134 133.804C125.19 133.676 125.254 133.556 125.326 133.444ZM137.665 139.876C137.121 139.876 136.617 139.76 136.153 139.528C135.689 139.304 135.265 139.008 134.881 138.64C134.497 138.264 134.153 137.856 133.849 137.416C133.553 136.968 133.301 136.528 133.093 136.096C132.997 136.536 132.909 136.912 132.829 137.224C132.757 137.536 132.697 137.796 132.649 138.004C132.609 138.164 132.565 138.32 132.517 138.472C132.477 138.624 132.413 138.748 132.325 138.844C132.237 138.94 132.113 138.988 131.953 138.988C131.609 138.988 131.389 138.872 131.293 138.64C131.197 138.4 131.149 138.096 131.149 137.728C131.149 137.4 131.201 136.968 131.305 136.432C131.417 135.896 131.565 135.296 131.749 134.632C131.933 133.968 132.145 133.284 132.385 132.58C132.633 131.868 132.897 131.176 133.177 130.504C133.457 129.824 133.737 129.208 134.017 128.656C134.193 128.32 134.349 128.108 134.485 128.02C134.621 127.924 134.781 127.876 134.965 127.876C135.149 127.876 135.289 127.924 135.385 128.02C135.481 128.116 135.529 128.244 135.529 128.404C135.529 128.508 135.505 128.612 135.457 128.716C135.409 128.82 135.357 128.948 135.301 129.1C135.117 129.508 134.925 129.984 134.725 130.528C134.525 131.064 134.333 131.62 134.149 132.196C133.965 132.764 133.801 133.304 133.657 133.816C134.049 133.584 134.485 133.36 134.965 133.144C135.445 132.92 135.929 132.72 136.417 132.544C136.913 132.36 137.377 132.216 137.809 132.112C138.241 132.008 138.605 131.956 138.901 131.956C139.133 131.956 139.309 132.024 139.429 132.16C139.549 132.296 139.609 132.444 139.609 132.604C139.609 132.724 139.573 132.844 139.501 132.964C139.429 133.084 139.277 133.188 139.045 133.276C138.277 133.532 137.513 133.792 136.753 134.056C136.001 134.32 135.165 134.632 134.245 134.992C134.437 135.368 134.661 135.756 134.917 136.156C135.173 136.548 135.449 136.916 135.745 137.26C136.041 137.596 136.345 137.872 136.657 138.088C136.969 138.296 137.277 138.4 137.581 138.4C138.029 138.4 138.461 138.312 138.877 138.136C139.293 137.952 139.677 137.732 140.029 137.476C140.381 137.212 140.689 136.956 140.953 136.708C141.225 136.46 141.437 136.268 141.589 136.132C141.677 136.044 141.761 135.98 141.841 135.94C141.929 135.9 142.037 135.88 142.165 135.88C142.317 135.88 142.433 135.928 142.513 136.024C142.601 136.112 142.641 136.228 142.633 136.372C142.625 136.508 142.557 136.644 142.429 136.78C142.325 136.892 142.161 137.072 141.937 137.32C141.721 137.56 141.457 137.828 141.145 138.124C140.841 138.412 140.501 138.692 140.125 138.964C139.757 139.228 139.365 139.444 138.949 139.612C138.533 139.788 138.105 139.876 137.665 139.876ZM144.434 139.612C144.09 139.612 143.846 139.564 143.702 139.468C143.566 139.372 143.498 139.232 143.498 139.048C143.498 138.888 143.554 138.752 143.666 138.64C143.778 138.52 144.026 138.4 144.41 138.28C144.858 138.144 145.282 137.988 145.682 137.812C146.09 137.628 146.422 137.428 146.678 137.212C146.942 136.996 147.074 136.768 147.074 136.528C147.074 136.368 147.018 136.252 146.906 136.18C146.802 136.108 146.678 136.072 146.534 136.072C146.414 136.072 146.238 136.092 146.006 136.132C145.782 136.164 145.534 136.208 145.262 136.264C144.99 136.312 144.726 136.356 144.47 136.396C144.222 136.428 144.01 136.444 143.834 136.444C143.418 136.444 143.11 136.352 142.91 136.168C142.71 135.976 142.61 135.732 142.61 135.436C142.61 135.276 142.694 135.056 142.862 134.776C143.03 134.496 143.254 134.188 143.534 133.852C143.814 133.516 144.126 133.18 144.47 132.844C144.814 132.508 145.162 132.2 145.514 131.92C145.874 131.632 146.214 131.404 146.534 131.236C146.854 131.06 147.126 130.972 147.35 130.972C147.606 130.972 147.81 131.052 147.962 131.212C148.122 131.372 148.202 131.588 148.202 131.86C148.202 131.988 148.19 132.128 148.166 132.28C148.142 132.424 148.082 132.556 147.986 132.676C147.89 132.788 147.742 132.868 147.542 132.916C147.342 132.964 147.07 132.956 146.726 132.892C146.454 133.092 146.17 133.312 145.874 133.552C145.586 133.784 145.314 134.028 145.058 134.284C144.802 134.532 144.59 134.776 144.422 135.016C144.718 134.92 145.054 134.844 145.43 134.788C145.806 134.724 146.186 134.692 146.57 134.692C147.034 134.692 147.41 134.776 147.698 134.944C147.994 135.104 148.21 135.32 148.346 135.592C148.49 135.864 148.562 136.164 148.562 136.492C148.562 136.86 148.442 137.228 148.202 137.596C147.962 137.964 147.642 138.3 147.242 138.604C146.842 138.908 146.398 139.152 145.91 139.336C145.422 139.52 144.93 139.612 144.434 139.612ZM153.33 142.3C152.882 142.3 152.474 142.272 152.106 142.216C151.738 142.168 151.378 142.088 151.026 141.976C150.674 141.864 150.294 141.716 149.886 141.532C149.718 141.452 149.578 141.368 149.466 141.28C149.354 141.192 149.298 141.06 149.298 140.884C149.298 140.628 149.378 140.432 149.538 140.296C149.69 140.168 149.902 140.104 150.174 140.104C150.318 140.104 150.502 140.152 150.726 140.248C150.95 140.352 151.206 140.468 151.494 140.596C151.79 140.732 152.118 140.848 152.478 140.944C152.838 141.048 153.226 141.1 153.642 141.1C154.066 141.1 154.462 140.924 154.83 140.572C155.198 140.22 155.494 139.724 155.718 139.084C155.95 138.452 156.066 137.704 156.066 136.84C156.066 136.64 156.062 136.424 156.054 136.192C156.046 135.952 156.038 135.7 156.03 135.436C155.742 135.98 155.43 136.488 155.094 136.96C154.758 137.432 154.41 137.816 154.05 138.112C153.698 138.4 153.342 138.544 152.982 138.544C152.542 138.544 152.222 138.44 152.022 138.232C151.83 138.016 151.734 137.676 151.734 137.212C151.734 136.82 151.762 136.392 151.818 135.928C151.882 135.456 151.966 134.98 152.07 134.5C152.174 134.02 152.294 133.564 152.43 133.132C152.574 132.692 152.726 132.312 152.886 131.992C153.006 131.76 153.19 131.644 153.438 131.644C153.598 131.644 153.758 131.72 153.918 131.872C154.086 132.024 154.17 132.228 154.17 132.484C154.17 132.628 154.134 132.836 154.062 133.108C153.99 133.38 153.902 133.688 153.798 134.032C153.702 134.368 153.602 134.724 153.498 135.1C153.394 135.468 153.306 135.832 153.234 136.192C153.162 136.544 153.126 136.864 153.126 137.152C153.126 137.184 153.15 137.2 153.198 137.2C153.294 137.2 153.422 137.12 153.582 136.96C153.75 136.792 153.934 136.576 154.134 136.312C154.342 136.04 154.55 135.744 154.758 135.424C154.974 135.096 155.182 134.772 155.382 134.452C155.582 134.132 155.762 133.84 155.922 133.576C155.898 133.448 155.882 133.336 155.874 133.24C155.874 133.136 155.874 133.048 155.874 132.976C155.874 132.648 155.93 132.376 156.042 132.16C156.162 131.944 156.394 131.836 156.738 131.836C156.962 131.836 157.134 131.92 157.254 132.088C157.374 132.248 157.434 132.476 157.434 132.772C157.434 132.9 157.414 133.048 157.374 133.216C157.334 133.376 157.254 133.632 157.134 133.984L157.266 133.612C157.338 134.332 157.398 134.972 157.446 135.532C157.502 136.092 157.53 136.648 157.53 137.2C157.53 138.24 157.354 139.14 157.002 139.9C156.658 140.668 156.17 141.26 155.538 141.676C154.914 142.092 154.178 142.3 153.33 142.3ZM171.892 138.724C171.844 139.156 171.588 139.372 171.124 139.372C170.884 139.372 170.692 139.3 170.548 139.156C170.412 139.012 170.344 138.804 170.344 138.532C170.344 138.068 170.364 137.572 170.404 137.044C170.452 136.508 170.508 135.968 170.572 135.424C170.644 134.88 170.712 134.36 170.776 133.864C170.488 134.28 170.184 134.708 169.864 135.148C169.544 135.588 169.224 136.016 168.904 136.432C168.584 136.848 168.276 137.224 167.98 137.56C167.692 137.888 167.428 138.152 167.188 138.352C166.948 138.544 166.748 138.64 166.588 138.64C166.204 138.64 165.872 138.5 165.592 138.22C165.312 137.932 165.172 137.568 165.172 137.128C165.172 136.976 165.188 136.772 165.22 136.516C165.252 136.252 165.292 135.972 165.34 135.676C165.388 135.38 165.428 135.1 165.46 134.836C165.492 134.572 165.508 134.364 165.508 134.212C165.508 134.212 165.508 134.204 165.508 134.188C165.516 134.148 165.508 134.128 165.484 134.128C165.452 134.128 165.364 134.236 165.22 134.452C165.076 134.66 164.9 134.932 164.692 135.268C164.484 135.604 164.264 135.956 164.032 136.324C163.808 136.692 163.596 137.036 163.396 137.356C163.204 137.676 163.044 137.924 162.916 138.1C162.74 138.372 162.576 138.544 162.424 138.616C162.272 138.688 162.096 138.724 161.896 138.724C161.616 138.724 161.396 138.632 161.236 138.448C161.084 138.256 161.008 137.988 161.008 137.644C161.008 137.5 161.032 137.276 161.08 136.972C161.136 136.668 161.204 136.332 161.284 135.964C161.364 135.588 161.444 135.224 161.524 134.872C161.612 134.512 161.688 134.208 161.752 133.96C161.824 133.632 161.924 133.404 162.052 133.276C162.188 133.14 162.36 133.072 162.568 133.072C163.056 133.072 163.3 133.312 163.3 133.792C163.3 133.88 163.272 134.024 163.216 134.224C163.16 134.424 163.092 134.656 163.012 134.92C162.932 135.184 162.848 135.456 162.76 135.736C162.672 136.008 162.6 136.264 162.544 136.504C162.736 136.168 162.944 135.808 163.168 135.424C163.392 135.04 163.62 134.664 163.852 134.296C164.092 133.928 164.328 133.592 164.56 133.288C164.8 132.984 165.036 132.744 165.268 132.568C165.5 132.384 165.72 132.292 165.928 132.292C166.136 132.292 166.34 132.368 166.54 132.52C166.74 132.664 166.904 132.852 167.032 133.084C167.168 133.308 167.236 133.548 167.236 133.804C167.236 134.044 167.204 134.332 167.14 134.668C167.076 135.004 167.004 135.356 166.924 135.724C166.844 136.092 166.788 136.452 166.756 136.804C167.028 136.5 167.316 136.156 167.62 135.772C167.924 135.38 168.236 134.976 168.556 134.56C168.876 134.144 169.188 133.74 169.492 133.348C169.804 132.956 170.092 132.6 170.356 132.28C170.628 131.96 170.868 131.708 171.076 131.524C171.284 131.332 171.444 131.236 171.556 131.236C171.884 131.236 172.14 131.324 172.324 131.5C172.516 131.668 172.612 131.964 172.612 132.388C172.612 132.652 172.592 132.996 172.552 133.42C172.52 133.844 172.472 134.304 172.408 134.8C172.352 135.288 172.288 135.784 172.216 136.288C172.152 136.784 172.092 137.244 172.036 137.668C171.98 138.092 171.932 138.444 171.892 138.724ZM192.046 139.168C191.814 139.168 191.638 139.096 191.518 138.952C191.406 138.808 191.35 138.612 191.35 138.364C191.35 138.164 191.358 137.992 191.374 137.848C191.39 137.704 191.422 137.552 191.47 137.392C191.518 137.224 191.578 137.02 191.65 136.78C191.73 136.532 191.83 136.216 191.95 135.832C192.022 135.608 192.11 135.316 192.214 134.956C192.326 134.588 192.438 134.188 192.55 133.756C192.662 133.316 192.754 132.876 192.826 132.436C192.906 131.988 192.946 131.576 192.946 131.2C192.946 130.944 192.89 130.708 192.778 130.492C192.034 131.228 191.33 132.188 190.666 133.372C190.01 134.556 189.426 135.932 188.914 137.5C188.762 137.892 188.586 138.156 188.386 138.292C188.186 138.42 187.994 138.484 187.81 138.484C187.754 138.484 187.67 138.452 187.558 138.388C187.446 138.316 187.342 138.188 187.246 138.004C187.15 137.82 187.102 137.56 187.102 137.224C187.102 137.144 187.122 137.044 187.162 136.924C187.202 136.796 187.262 136.66 187.342 136.516C187.414 136.1 187.466 135.656 187.498 135.184C187.538 134.704 187.562 134.228 187.57 133.756C187.586 133.276 187.594 132.828 187.594 132.412C187.594 132.092 187.57 131.812 187.522 131.572C187.13 132.068 186.758 132.668 186.406 133.372C186.054 134.076 185.734 134.824 185.446 135.616C185.166 136.408 184.934 137.184 184.75 137.944C184.702 138.128 184.646 138.3 184.582 138.46C184.518 138.612 184.422 138.736 184.294 138.832C184.174 138.92 183.998 138.964 183.766 138.964C183.51 138.964 183.318 138.86 183.19 138.652C183.062 138.444 182.998 138.168 182.998 137.824C182.998 137.56 183.054 137.22 183.166 136.804C183.278 136.38 183.43 135.92 183.622 135.424C183.814 134.92 184.034 134.408 184.282 133.888C184.538 133.36 184.806 132.852 185.086 132.364C185.366 131.876 185.65 131.44 185.938 131.056C186.234 130.664 186.514 130.356 186.778 130.132C187.05 129.9 187.298 129.784 187.522 129.784C187.53 129.784 187.542 129.784 187.558 129.784C187.734 129.784 187.894 129.8 188.038 129.832C188.19 129.856 188.322 129.94 188.434 130.084C188.554 130.22 188.658 130.448 188.746 130.768C188.834 131.088 188.91 131.54 188.974 132.124C188.99 132.268 189.002 132.44 189.01 132.64C189.018 132.832 189.022 133.032 189.022 133.24C189.286 132.648 189.574 132.092 189.886 131.572C190.206 131.052 190.534 130.592 190.87 130.192C191.214 129.792 191.554 129.48 191.89 129.256C192.226 129.032 192.538 128.92 192.826 128.92C193.162 128.92 193.474 129.004 193.762 129.172C194.05 129.332 194.282 129.604 194.458 129.988C194.634 130.372 194.722 130.896 194.722 131.56C194.722 132.264 194.658 132.948 194.53 133.612C194.402 134.268 194.242 134.888 194.05 135.472C193.858 136.056 193.666 136.592 193.474 137.08C193.282 137.56 193.122 137.976 192.994 138.328C192.89 138.576 192.77 138.78 192.634 138.94C192.498 139.092 192.302 139.168 192.046 139.168ZM199.613 142.3C199.165 142.3 198.757 142.272 198.389 142.216C198.021 142.168 197.661 142.088 197.309 141.976C196.957 141.864 196.577 141.716 196.169 141.532C196.001 141.452 195.861 141.368 195.749 141.28C195.637 141.192 195.581 141.06 195.581 140.884C195.581 140.628 195.661 140.432 195.821 140.296C195.973 140.168 196.185 140.104 196.457 140.104C196.601 140.104 196.785 140.152 197.009 140.248C197.233 140.352 197.489 140.468 197.777 140.596C198.073 140.732 198.401 140.848 198.761 140.944C199.121 141.048 199.509 141.1 199.925 141.1C200.349 141.1 200.745 140.924 201.113 140.572C201.481 140.22 201.777 139.724 202.001 139.084C202.233 138.452 202.349 137.704 202.349 136.84C202.349 136.64 202.345 136.424 202.337 136.192C202.329 135.952 202.321 135.7 202.313 135.436C202.025 135.98 201.713 136.488 201.377 136.96C201.041 137.432 200.693 137.816 200.333 138.112C199.981 138.4 199.625 138.544 199.265 138.544C198.825 138.544 198.505 138.44 198.305 138.232C198.113 138.016 198.017 137.676 198.017 137.212C198.017 136.82 198.045 136.392 198.101 135.928C198.165 135.456 198.249 134.98 198.353 134.5C198.457 134.02 198.577 133.564 198.713 133.132C198.857 132.692 199.009 132.312 199.169 131.992C199.289 131.76 199.473 131.644 199.721 131.644C199.881 131.644 200.041 131.72 200.201 131.872C200.369 132.024 200.453 132.228 200.453 132.484C200.453 132.628 200.417 132.836 200.345 133.108C200.273 133.38 200.185 133.688 200.081 134.032C199.985 134.368 199.885 134.724 199.781 135.1C199.677 135.468 199.589 135.832 199.517 136.192C199.445 136.544 199.409 136.864 199.409 137.152C199.409 137.184 199.433 137.2 199.481 137.2C199.577 137.2 199.705 137.12 199.865 136.96C200.033 136.792 200.217 136.576 200.417 136.312C200.625 136.04 200.833 135.744 201.041 135.424C201.257 135.096 201.465 134.772 201.665 134.452C201.865 134.132 202.045 133.84 202.205 133.576C202.181 133.448 202.165 133.336 202.157 133.24C202.157 133.136 202.157 133.048 202.157 132.976C202.157 132.648 202.213 132.376 202.325 132.16C202.445 131.944 202.677 131.836 203.021 131.836C203.245 131.836 203.417 131.92 203.537 132.088C203.657 132.248 203.717 132.476 203.717 132.772C203.717 132.9 203.697 133.048 203.657 133.216C203.617 133.376 203.537 133.632 203.417 133.984L203.549 133.612C203.621 134.332 203.681 134.972 203.729 135.532C203.785 136.092 203.813 136.648 203.813 137.2C203.813 138.24 203.637 139.14 203.285 139.9C202.941 140.668 202.453 141.26 201.821 141.676C201.197 142.092 200.461 142.3 199.613 142.3ZM213.929 139.876C213.385 139.876 212.881 139.76 212.417 139.528C211.953 139.304 211.529 139.008 211.145 138.64C210.761 138.264 210.417 137.856 210.113 137.416C209.817 136.968 209.565 136.528 209.357 136.096C209.261 136.536 209.173 136.912 209.093 137.224C209.021 137.536 208.961 137.796 208.913 138.004C208.873 138.164 208.829 138.32 208.781 138.472C208.741 138.624 208.677 138.748 208.589 138.844C208.501 138.94 208.377 138.988 208.217 138.988C207.873 138.988 207.653 138.872 207.557 138.64C207.461 138.4 207.413 138.096 207.413 137.728C207.413 137.4 207.465 136.968 207.569 136.432C207.681 135.896 207.829 135.296 208.013 134.632C208.197 133.968 208.409 133.284 208.649 132.58C208.897 131.868 209.161 131.176 209.441 130.504C209.721 129.824 210.001 129.208 210.281 128.656C210.457 128.32 210.613 128.108 210.749 128.02C210.885 127.924 211.045 127.876 211.229 127.876C211.413 127.876 211.553 127.924 211.649 128.02C211.745 128.116 211.793 128.244 211.793 128.404C211.793 128.508 211.769 128.612 211.721 128.716C211.673 128.82 211.621 128.948 211.565 129.1C211.381 129.508 211.189 129.984 210.989 130.528C210.789 131.064 210.597 131.62 210.413 132.196C210.229 132.764 210.065 133.304 209.921 133.816C210.313 133.584 210.749 133.36 211.229 133.144C211.709 132.92 212.193 132.72 212.681 132.544C213.177 132.36 213.641 132.216 214.073 132.112C214.505 132.008 214.869 131.956 215.165 131.956C215.397 131.956 215.573 132.024 215.693 132.16C215.813 132.296 215.873 132.444 215.873 132.604C215.873 132.724 215.837 132.844 215.765 132.964C215.693 133.084 215.541 133.188 215.309 133.276C214.541 133.532 213.777 133.792 213.017 134.056C212.265 134.32 211.429 134.632 210.509 134.992C210.701 135.368 210.925 135.756 211.181 136.156C211.437 136.548 211.713 136.916 212.009 137.26C212.305 137.596 212.609 137.872 212.921 138.088C213.233 138.296 213.541 138.4 213.845 138.4C214.293 138.4 214.725 138.312 215.141 138.136C215.557 137.952 215.941 137.732 216.293 137.476C216.645 137.212 216.953 136.956 217.217 136.708C217.489 136.46 217.701 136.268 217.853 136.132C217.941 136.044 218.025 135.98 218.105 135.94C218.193 135.9 218.301 135.88 218.429 135.88C218.581 135.88 218.697 135.928 218.777 136.024C218.865 136.112 218.905 136.228 218.897 136.372C218.889 136.508 218.821 136.644 218.693 136.78C218.589 136.892 218.425 137.072 218.201 137.32C217.985 137.56 217.721 137.828 217.409 138.124C217.105 138.412 216.765 138.692 216.389 138.964C216.021 139.228 215.629 139.444 215.213 139.612C214.797 139.788 214.369 139.876 213.929 139.876ZM220.574 139.936C220.206 139.936 219.942 139.832 219.782 139.624C219.622 139.416 219.542 139.112 219.542 138.712C219.542 138.344 219.61 137.864 219.746 137.272C219.89 136.672 220.078 136.004 220.31 135.268C220.55 134.524 220.818 133.76 221.114 132.976C221.41 132.184 221.718 131.408 222.038 130.648C222.358 129.88 222.67 129.176 222.974 128.536C223.118 128.256 223.27 128.064 223.43 127.96C223.59 127.856 223.766 127.804 223.958 127.804C224.142 127.804 224.298 127.856 224.426 127.96C224.554 128.056 224.618 128.212 224.618 128.428C224.618 128.476 224.554 128.66 224.426 128.98C224.298 129.292 224.13 129.7 223.922 130.204C223.714 130.7 223.486 131.26 223.238 131.884C222.99 132.5 222.742 133.144 222.494 133.816C222.246 134.48 222.022 135.136 221.822 135.784C221.622 136.432 221.462 137.032 221.342 137.584C221.622 137.208 221.922 136.792 222.242 136.336C222.57 135.872 222.902 135.412 223.238 134.956C223.582 134.492 223.918 134.068 224.246 133.684C224.582 133.3 224.894 132.992 225.182 132.76C225.47 132.528 225.722 132.412 225.938 132.412C226.338 132.412 226.658 132.524 226.898 132.748C227.146 132.964 227.27 133.34 227.27 133.876C227.27 134.124 227.222 134.424 227.126 134.776C227.03 135.12 226.914 135.484 226.778 135.868C226.65 136.244 226.538 136.608 226.442 136.96C226.346 137.312 226.298 137.62 226.298 137.884C226.298 138.028 226.366 138.1 226.502 138.1C226.894 138.1 227.29 138.016 227.69 137.848C228.098 137.68 228.486 137.472 228.854 137.224C229.23 136.968 229.57 136.716 229.874 136.468C230.186 136.212 230.438 136 230.63 135.832C230.766 135.704 230.89 135.62 231.002 135.58C231.114 135.532 231.218 135.508 231.314 135.508C231.642 135.508 231.806 135.672 231.806 136C231.806 136.064 231.794 136.144 231.77 136.24C231.746 136.328 231.67 136.44 231.542 136.576C231.414 136.712 231.222 136.904 230.966 137.152C230.71 137.4 230.41 137.664 230.066 137.944C229.73 138.224 229.362 138.492 228.962 138.748C228.57 138.996 228.166 139.2 227.75 139.36C227.334 139.52 226.93 139.6 226.538 139.6C225.946 139.6 225.49 139.432 225.17 139.096C224.85 138.768 224.69 138.32 224.69 137.752C224.69 137.36 224.77 136.868 224.93 136.276C225.09 135.676 225.27 135.064 225.47 134.44C225.19 134.712 224.898 135.036 224.594 135.412C224.29 135.78 223.982 136.172 223.67 136.588C223.358 136.996 223.05 137.4 222.746 137.8C222.45 138.192 222.166 138.552 221.894 138.88C221.622 139.2 221.374 139.456 221.15 139.648C220.926 139.84 220.734 139.936 220.574 139.936ZM232.983 139.456C232.727 139.456 232.495 139.384 232.287 139.24C232.079 139.104 231.915 138.924 231.795 138.7C231.675 138.468 231.615 138.22 231.615 137.956C231.615 137.46 231.723 136.976 231.939 136.504C232.163 136.032 232.455 135.584 232.815 135.16C233.175 134.736 233.567 134.348 233.991 133.996C234.423 133.636 234.851 133.328 235.275 133.072C235.707 132.816 236.099 132.616 236.451 132.472C236.811 132.328 237.091 132.256 237.291 132.256C237.523 132.256 237.711 132.308 237.855 132.412C238.007 132.508 238.083 132.66 238.083 132.868C238.083 132.932 238.067 132.984 238.035 133.024C238.139 133.048 238.223 133.108 238.287 133.204C238.351 133.3 238.383 133.444 238.383 133.636C238.383 133.716 238.363 133.924 238.323 134.26C238.283 134.596 238.239 135.004 238.191 135.484C238.151 135.964 238.131 136.464 238.131 136.984C238.131 137.064 238.143 137.136 238.167 137.2C238.191 137.256 238.243 137.284 238.323 137.284C238.643 137.284 238.967 137.22 239.295 137.092C239.631 136.956 239.955 136.792 240.267 136.6C240.587 136.4 240.875 136.204 241.131 136.012C241.395 135.812 241.615 135.648 241.791 135.52C241.975 135.384 242.095 135.316 242.151 135.316C242.423 135.316 242.559 135.452 242.559 135.724C242.559 135.796 242.471 135.948 242.295 136.18C242.127 136.404 241.895 136.664 241.599 136.96C241.303 137.248 240.971 137.536 240.603 137.824C240.243 138.104 239.867 138.336 239.475 138.52C239.091 138.704 238.719 138.796 238.359 138.796C237.919 138.796 237.583 138.692 237.351 138.484C237.127 138.276 236.967 137.996 236.871 137.644C236.783 137.284 236.735 136.88 236.727 136.432C236.319 137.016 235.895 137.536 235.455 137.992C235.023 138.44 234.595 138.796 234.171 139.06C233.747 139.324 233.351 139.456 232.983 139.456ZM237.231 133.444C236.447 133.82 235.743 134.252 235.119 134.74C234.495 135.22 233.999 135.724 233.631 136.252C233.271 136.78 233.091 137.288 233.091 137.776C233.091 137.912 233.155 137.98 233.283 137.98C233.435 137.98 233.635 137.892 233.883 137.716C234.139 137.54 234.415 137.308 234.711 137.02C235.007 136.724 235.303 136.396 235.599 136.036C235.895 135.668 236.171 135.292 236.427 134.908C236.683 134.524 236.887 134.156 237.039 133.804C237.095 133.676 237.159 133.556 237.231 133.444ZM243.589 139.18C243.365 139.18 243.165 139.104 242.989 138.952C242.821 138.8 242.737 138.552 242.737 138.208C242.737 138.024 242.761 137.764 242.809 137.428C242.865 137.092 242.937 136.728 243.025 136.336C243.113 135.936 243.209 135.54 243.313 135.148C243.425 134.756 243.533 134.408 243.637 134.104C243.741 133.792 243.833 133.56 243.913 133.408C244.017 133.224 244.113 133.112 244.201 133.072C244.297 133.024 244.389 133 244.477 133C244.637 133 244.785 133.048 244.921 133.144C245.065 133.24 245.137 133.452 245.137 133.78C245.137 133.908 245.113 134.116 245.065 134.404C245.017 134.684 244.957 135.012 244.885 135.388C244.813 135.764 244.733 136.152 244.645 136.552C244.565 136.952 244.485 137.332 244.405 137.692C244.333 138.044 244.273 138.34 244.225 138.58C244.185 138.78 244.101 138.928 243.973 139.024C243.853 139.128 243.725 139.18 243.589 139.18ZM244.969 131.812C244.705 131.812 244.461 131.736 244.237 131.584C244.013 131.424 243.901 131.18 243.901 130.852C243.901 130.58 243.969 130.36 244.105 130.192C244.241 130.024 244.401 129.904 244.585 129.832C244.777 129.752 244.945 129.712 245.089 129.712C245.233 129.712 245.393 129.744 245.569 129.808C245.745 129.864 245.897 129.972 246.025 130.132C246.161 130.284 246.229 130.504 246.229 130.792C246.229 130.984 246.161 131.16 246.025 131.32C245.889 131.472 245.721 131.592 245.521 131.68C245.329 131.768 245.145 131.812 244.969 131.812ZM250.824 139.6C250.104 139.6 249.536 139.38 249.12 138.94C248.712 138.492 248.508 137.856 248.508 137.032C248.508 136.584 248.568 136.06 248.688 135.46C248.808 134.852 248.964 134.212 249.156 133.54C249.356 132.86 249.568 132.188 249.792 131.524C250.024 130.86 250.252 130.244 250.476 129.676C250.7 129.108 250.896 128.632 251.064 128.248C251.208 127.952 251.412 127.804 251.676 127.804C251.844 127.804 251.98 127.856 252.084 127.96C252.196 128.064 252.252 128.232 252.252 128.464C252.252 128.576 252.196 128.82 252.084 129.196C251.972 129.572 251.824 130.036 251.64 130.588C251.464 131.132 251.272 131.72 251.064 132.352C250.864 132.984 250.672 133.62 250.488 134.26C250.312 134.9 250.168 135.504 250.056 136.072C249.944 136.632 249.888 137.108 249.888 137.5C249.888 137.66 249.932 137.788 250.02 137.884C250.116 137.98 250.24 138.028 250.392 138.028C250.72 138.028 251.056 137.968 251.4 137.848C251.752 137.728 252.096 137.576 252.432 137.392C252.776 137.208 253.1 137.012 253.404 136.804C253.708 136.596 253.98 136.4 254.22 136.216C254.468 136.024 254.668 135.872 254.82 135.76C255.02 135.608 255.156 135.532 255.228 135.532C255.5 135.532 255.636 135.664 255.636 135.928C255.636 135.992 255.556 136.124 255.396 136.324C255.26 136.5 255.068 136.724 254.82 136.996C254.572 137.268 254.284 137.556 253.956 137.86C253.636 138.156 253.292 138.436 252.924 138.7C252.564 138.964 252.204 139.18 251.844 139.348C251.484 139.516 251.144 139.6 250.824 139.6ZM257.268 139.18C257.044 139.18 256.844 139.104 256.668 138.952C256.5 138.8 256.416 138.552 256.416 138.208C256.416 138.024 256.44 137.764 256.488 137.428C256.544 137.092 256.616 136.728 256.704 136.336C256.792 135.936 256.888 135.54 256.992 135.148C257.104 134.756 257.212 134.408 257.316 134.104C257.42 133.792 257.512 133.56 257.592 133.408C257.696 133.224 257.792 133.112 257.88 133.072C257.976 133.024 258.068 133 258.156 133C258.316 133 258.464 133.048 258.6 133.144C258.744 133.24 258.816 133.452 258.816 133.78C258.816 133.908 258.792 134.116 258.744 134.404C258.696 134.684 258.636 135.012 258.564 135.388C258.492 135.764 258.412 136.152 258.324 136.552C258.244 136.952 258.164 137.332 258.084 137.692C258.012 138.044 257.952 138.34 257.904 138.58C257.864 138.78 257.78 138.928 257.652 139.024C257.532 139.128 257.404 139.18 257.268 139.18ZM258.648 131.812C258.384 131.812 258.14 131.736 257.916 131.584C257.692 131.424 257.58 131.18 257.58 130.852C257.58 130.58 257.648 130.36 257.784 130.192C257.92 130.024 258.08 129.904 258.264 129.832C258.456 129.752 258.624 129.712 258.768 129.712C258.912 129.712 259.072 129.744 259.248 129.808C259.424 129.864 259.576 129.972 259.704 130.132C259.84 130.284 259.908 130.504 259.908 130.792C259.908 130.984 259.84 131.16 259.704 131.32C259.568 131.472 259.4 131.592 259.2 131.68C259.008 131.768 258.824 131.812 258.648 131.812ZM266.544 139.54C266.36 139.54 266.192 139.464 266.04 139.312C265.896 139.168 265.824 138.924 265.824 138.58C265.824 138.324 265.844 137.968 265.884 137.512C265.932 137.048 266.02 136.452 266.148 135.724C265.868 136.3 265.576 136.812 265.272 137.26C264.968 137.708 264.668 138.06 264.372 138.316C264.084 138.564 263.808 138.688 263.544 138.688C263.12 138.688 262.784 138.56 262.536 138.304C262.288 138.04 262.164 137.548 262.164 136.828C262.164 136.484 262.192 136.096 262.248 135.664C262.312 135.232 262.392 134.8 262.488 134.368C262.584 133.936 262.68 133.552 262.776 133.216C262.88 132.872 262.972 132.616 263.052 132.448C263.116 132.304 263.196 132.192 263.292 132.112C263.396 132.032 263.528 131.992 263.688 131.992C263.944 131.992 264.14 132.076 264.276 132.244C264.412 132.412 264.48 132.584 264.48 132.76C264.48 132.896 264.448 133.092 264.384 133.348C264.328 133.604 264.256 133.888 264.168 134.2C264.088 134.512 264.004 134.832 263.916 135.16C263.828 135.488 263.752 135.796 263.688 136.084C263.632 136.372 263.604 136.616 263.604 136.816C263.604 137.064 263.7 137.188 263.892 137.188C264.004 137.188 264.148 137.08 264.324 136.864C264.508 136.648 264.7 136.36 264.9 136C265.108 135.632 265.316 135.232 265.524 134.8C265.74 134.36 265.936 133.916 266.112 133.468C266.296 133.012 266.452 132.592 266.58 132.208C266.66 131.968 266.768 131.8 266.904 131.704C267.04 131.608 267.196 131.56 267.372 131.56C267.644 131.56 267.852 131.636 267.996 131.788C268.148 131.94 268.224 132.156 268.224 132.436C268.224 132.564 268.204 132.78 268.164 133.084C268.124 133.388 268.072 133.744 268.008 134.152C267.952 134.56 267.884 134.992 267.804 135.448C267.724 135.904 267.644 136.352 267.564 136.792C267.492 137.232 267.42 137.636 267.348 138.004C267.276 138.364 267.216 138.652 267.168 138.868C267.088 139.188 266.992 139.38 266.88 139.444C266.768 139.508 266.656 139.54 266.544 139.54ZM277.794 139.876C277.25 139.876 276.746 139.76 276.282 139.528C275.818 139.304 275.394 139.008 275.01 138.64C274.626 138.264 274.282 137.856 273.978 137.416C273.682 136.968 273.43 136.528 273.222 136.096C273.126 136.536 273.038 136.912 272.958 137.224C272.886 137.536 272.826 137.796 272.778 138.004C272.738 138.164 272.694 138.32 272.646 138.472C272.606 138.624 272.542 138.748 272.454 138.844C272.366 138.94 272.242 138.988 272.082 138.988C271.738 138.988 271.518 138.872 271.422 138.64C271.326 138.4 271.278 138.096 271.278 137.728C271.278 137.4 271.33 136.968 271.434 136.432C271.546 135.896 271.694 135.296 271.878 134.632C272.062 133.968 272.274 133.284 272.514 132.58C272.762 131.868 273.026 131.176 273.306 130.504C273.586 129.824 273.866 129.208 274.146 128.656C274.322 128.32 274.478 128.108 274.614 128.02C274.75 127.924 274.91 127.876 275.094 127.876C275.278 127.876 275.418 127.924 275.514 128.02C275.61 128.116 275.658 128.244 275.658 128.404C275.658 128.508 275.634 128.612 275.586 128.716C275.538 128.82 275.486 128.948 275.43 129.1C275.246 129.508 275.054 129.984 274.854 130.528C274.654 131.064 274.462 131.62 274.278 132.196C274.094 132.764 273.93 133.304 273.786 133.816C274.178 133.584 274.614 133.36 275.094 133.144C275.574 132.92 276.058 132.72 276.546 132.544C277.042 132.36 277.506 132.216 277.938 132.112C278.37 132.008 278.734 131.956 279.03 131.956C279.262 131.956 279.438 132.024 279.558 132.16C279.678 132.296 279.738 132.444 279.738 132.604C279.738 132.724 279.702 132.844 279.63 132.964C279.558 133.084 279.406 133.188 279.174 133.276C278.406 133.532 277.642 133.792 276.882 134.056C276.13 134.32 275.294 134.632 274.374 134.992C274.566 135.368 274.79 135.756 275.046 136.156C275.302 136.548 275.578 136.916 275.874 137.26C276.17 137.596 276.474 137.872 276.786 138.088C277.098 138.296 277.406 138.4 277.71 138.4C278.158 138.4 278.59 138.312 279.006 138.136C279.422 137.952 279.806 137.732 280.158 137.476C280.51 137.212 280.818 136.956 281.082 136.708C281.354 136.46 281.566 136.268 281.718 136.132C281.806 136.044 281.89 135.98 281.97 135.94C282.058 135.9 282.166 135.88 282.294 135.88C282.446 135.88 282.562 135.928 282.642 136.024C282.73 136.112 282.77 136.228 282.762 136.372C282.754 136.508 282.686 136.644 282.558 136.78C282.454 136.892 282.29 137.072 282.066 137.32C281.85 137.56 281.586 137.828 281.274 138.124C280.97 138.412 280.63 138.692 280.254 138.964C279.886 139.228 279.494 139.444 279.078 139.612C278.662 139.788 278.234 139.876 277.794 139.876ZM285.226 139.396C284.658 139.396 284.202 139.196 283.858 138.796C283.514 138.388 283.342 137.844 283.342 137.164C283.342 136.948 283.37 136.728 283.426 136.504C283.49 136.28 283.566 136.072 283.654 135.88C283.606 135.808 283.566 135.716 283.534 135.604C283.51 135.484 283.498 135.344 283.498 135.184C283.498 134.664 283.59 134.188 283.774 133.756C283.958 133.316 284.206 132.936 284.518 132.616C284.83 132.296 285.174 132.048 285.55 131.872C285.926 131.696 286.306 131.608 286.69 131.608C287.346 131.608 287.882 131.828 288.298 132.268C288.722 132.708 288.934 133.392 288.934 134.32C288.934 134.784 288.862 135.256 288.718 135.736C288.574 136.216 288.378 136.676 288.13 137.116C287.89 137.548 287.61 137.936 287.29 138.28C286.978 138.624 286.642 138.896 286.282 139.096C285.93 139.296 285.578 139.396 285.226 139.396ZM285.034 135.34C285.074 135.428 285.094 135.532 285.094 135.652C285.094 135.772 285.07 135.896 285.022 136.024C284.974 136.152 284.926 136.324 284.878 136.54C284.83 136.748 284.806 137.048 284.806 137.44C284.806 137.544 284.818 137.632 284.842 137.704C284.874 137.768 284.942 137.8 285.046 137.8C285.318 137.8 285.574 137.712 285.814 137.536C286.062 137.36 286.282 137.128 286.474 136.84C286.674 136.552 286.842 136.232 286.978 135.88C287.122 135.52 287.23 135.156 287.302 134.788C287.382 134.412 287.422 134.064 287.422 133.744C287.422 133.536 287.382 133.392 287.302 133.312C287.222 133.232 287.082 133.192 286.882 133.192C286.61 133.192 286.33 133.28 286.042 133.456C285.762 133.624 285.526 133.856 285.334 134.152C285.142 134.44 285.046 134.768 285.046 135.136C285.046 135.208 285.042 135.276 285.034 135.34ZM293.585 138.988C293.377 138.988 293.193 138.888 293.033 138.688C292.881 138.488 292.765 138.18 292.685 137.764C292.621 137.412 292.565 137.012 292.517 136.564C292.469 136.116 292.425 135.676 292.385 135.244C292.353 134.804 292.329 134.42 292.313 134.092C292.297 133.764 292.289 133.54 292.289 133.42C292.289 132.988 292.365 132.632 292.517 132.352C292.669 132.064 292.961 131.92 293.393 131.92C293.577 131.92 293.717 132 293.813 132.16C293.909 132.312 293.957 132.524 293.957 132.796C293.957 132.964 293.957 133.176 293.957 133.432C293.965 133.68 293.973 133.96 293.981 134.272C293.989 134.616 293.997 134.988 294.005 135.388C294.021 135.78 294.029 136.172 294.029 136.564C294.309 136.124 294.609 135.656 294.929 135.16C295.249 134.656 295.561 134.168 295.865 133.696C296.177 133.224 296.457 132.808 296.705 132.448C296.953 132.08 297.141 131.82 297.269 131.668C297.381 131.532 297.517 131.416 297.677 131.32C297.837 131.216 298.005 131.164 298.181 131.164C298.373 131.164 298.533 131.24 298.661 131.392C298.789 131.544 298.853 131.72 298.853 131.92C298.853 132.072 298.821 132.216 298.757 132.352C298.701 132.488 298.629 132.616 298.541 132.736C298.301 133.072 298.017 133.464 297.689 133.912C297.369 134.36 297.033 134.832 296.681 135.328C296.329 135.816 295.985 136.288 295.649 136.744C295.321 137.2 295.029 137.604 294.773 137.956C294.565 138.252 294.397 138.476 294.269 138.628C294.141 138.772 294.025 138.868 293.921 138.916C293.825 138.964 293.713 138.988 293.585 138.988Z" fill="white"/>
<path d="M84.696 62.872C84.696 62.872 84.6933 62.872 84.688 62.872C84.6027 62.872 84.5173 62.8587 84.432 62.832C84.3467 62.8053 84.2773 62.728 84.224 62.6C84.1707 62.4667 84.144 62.2427 84.144 61.928C84.144 61.7093 84.1733 61.4427 84.232 61.128C84.2907 60.8133 84.3653 60.4747 84.456 60.112C84.552 59.744 84.656 59.3787 84.768 59.016C84.88 58.6533 84.9867 58.3147 85.088 58C85.1947 57.6853 85.288 57.416 85.368 57.192C85.4533 56.968 85.5147 56.8187 85.552 56.744C85.5893 56.6533 85.6507 56.576 85.736 56.512C85.8267 56.4427 85.92 56.408 86.016 56.408C86.2133 56.408 86.3413 56.4613 86.4 56.568C86.4587 56.6693 86.488 56.7813 86.488 56.904C86.488 57.0107 86.4427 57.2587 86.352 57.648C86.2613 58.032 86.1173 58.5973 85.92 59.344C86.368 59.312 86.8267 59.2693 87.296 59.216C87.7707 59.1627 88.1893 59.112 88.552 59.064C88.6373 58.744 88.72 58.448 88.8 58.176C88.88 57.8987 88.9493 57.6667 89.008 57.48C89.0667 57.288 89.1067 57.16 89.128 57.096C89.2133 56.8987 89.304 56.7627 89.4 56.688C89.5013 56.6133 89.6053 56.576 89.712 56.576C89.8507 56.576 89.968 56.6213 90.064 56.712C90.1653 56.7973 90.216 56.9413 90.216 57.144C90.216 57.272 90.1813 57.5093 90.112 57.856C90.0427 58.2027 89.9573 58.5947 89.856 59.032C89.936 59.0853 90.0053 59.1493 90.064 59.224C90.128 59.2987 90.16 59.368 90.16 59.432C90.16 59.5173 90.1387 59.6 90.096 59.68C90.0587 59.7547 89.9733 59.8213 89.84 59.88C89.8027 59.896 89.736 59.9147 89.64 59.936C89.5387 60.3467 89.44 60.7413 89.344 61.12C89.2533 61.4933 89.176 61.8133 89.112 62.08C89.048 62.3413 89.0107 62.5093 89 62.584C88.968 62.7813 88.9093 62.9467 88.824 63.08C88.7387 63.2187 88.608 63.288 88.432 63.288C88.2987 63.288 88.1893 63.2267 88.104 63.104C88.0187 62.9813 87.976 62.7307 87.976 62.352C87.976 62.0693 88.0053 61.7413 88.064 61.368C88.1227 60.9893 88.1947 60.6027 88.28 60.208C87.88 60.272 87.448 60.328 86.984 60.376C86.52 60.4187 86.0667 60.4373 85.624 60.432C85.4693 61.0347 85.3413 61.5147 85.24 61.872C85.144 62.2293 85.056 62.4853 84.976 62.64C84.896 62.7947 84.8027 62.872 84.696 62.872ZM94.0185 58.128C93.7625 58.128 93.5732 58.104 93.4505 58.056C93.3332 58.0027 93.2558 57.9413 93.2185 57.872C93.1865 57.7973 93.1705 57.7307 93.1705 57.672C93.1705 57.5973 93.2132 57.512 93.2985 57.416C93.3838 57.3147 93.5492 57.24 93.7945 57.192C94.0398 57.1387 94.3305 57.0907 94.6665 57.048C95.0025 57 95.3598 56.96 95.7385 56.928C96.1172 56.8907 96.5012 56.8587 96.8905 56.832C97.2798 56.8053 97.6505 56.7867 98.0025 56.776C98.3545 56.76 98.6665 56.752 98.9385 56.752C99.2212 56.752 99.4398 56.768 99.5945 56.8C99.7492 56.832 99.8585 56.872 99.9225 56.92C99.9918 56.968 100.032 57.0187 100.043 57.072C100.059 57.1253 100.067 57.176 100.067 57.224C100.067 57.2347 100.067 57.2427 100.067 57.248C100.067 57.312 100.051 57.3813 100.019 57.456C99.9918 57.5307 99.9305 57.5947 99.8345 57.648C99.7385 57.696 99.5945 57.72 99.4025 57.72C99.3332 57.72 99.1785 57.7307 98.9385 57.752C98.6985 57.7733 98.4052 57.8 98.0585 57.832C97.7118 57.864 97.3438 57.896 96.9545 57.928C96.8958 58.168 96.8292 58.448 96.7545 58.768C96.6852 59.088 96.6132 59.424 96.5385 59.776C96.4692 60.128 96.4025 60.4747 96.3385 60.816C96.2745 61.152 96.2212 61.464 96.1785 61.752C96.1358 62.0347 96.1065 62.2667 96.0905 62.448C96.0692 62.6933 95.9972 62.8667 95.8745 62.968C95.7572 63.064 95.6398 63.112 95.5225 63.112C95.4372 63.112 95.3518 63.0933 95.2665 63.056C95.1812 63.024 95.1118 62.952 95.0585 62.84C95.0052 62.7227 94.9785 62.5493 94.9785 62.32C94.9785 62.0853 94.9998 61.7973 95.0425 61.456C95.0852 61.1093 95.1412 60.7387 95.2105 60.344C95.2852 59.9493 95.3678 59.552 95.4585 59.152C95.5545 58.752 95.6532 58.3787 95.7545 58.032C95.3972 58.0587 95.0665 58.0827 94.7625 58.104C94.4585 58.12 94.2105 58.128 94.0185 58.128ZM107.049 63.112C106.895 63.112 106.777 63.064 106.697 62.968C106.623 62.872 106.585 62.7413 106.585 62.576C106.585 62.4427 106.591 62.328 106.601 62.232C106.612 62.136 106.633 62.0347 106.665 61.928C106.697 61.816 106.737 61.68 106.785 61.52C106.839 61.3547 106.905 61.144 106.985 60.888C107.033 60.7387 107.092 60.544 107.161 60.304C107.236 60.0587 107.311 59.792 107.385 59.504C107.46 59.2107 107.521 58.9173 107.569 58.624C107.623 58.3253 107.649 58.0507 107.649 57.8C107.649 57.6293 107.612 57.472 107.537 57.328C107.041 57.8187 106.572 58.4587 106.129 59.248C105.692 60.0373 105.303 60.9547 104.961 62C104.86 62.2613 104.743 62.4373 104.609 62.528C104.476 62.6133 104.348 62.656 104.225 62.656C104.188 62.656 104.132 62.6347 104.057 62.592C103.983 62.544 103.913 62.4587 103.849 62.336C103.785 62.2133 103.753 62.04 103.753 61.816C103.753 61.7627 103.767 61.696 103.793 61.616C103.82 61.5307 103.86 61.44 103.913 61.344C103.961 61.0667 103.996 60.7707 104.017 60.456C104.044 60.136 104.06 59.8187 104.065 59.504C104.076 59.184 104.081 58.8853 104.081 58.608C104.081 58.3947 104.065 58.208 104.033 58.048C103.772 58.3787 103.524 58.7787 103.289 59.248C103.055 59.7173 102.841 60.216 102.649 60.744C102.463 61.272 102.308 61.7893 102.185 62.296C102.153 62.4187 102.116 62.5333 102.073 62.64C102.031 62.7413 101.967 62.824 101.881 62.888C101.801 62.9467 101.684 62.976 101.529 62.976C101.359 62.976 101.231 62.9067 101.145 62.768C101.06 62.6293 101.017 62.4453 101.017 62.216C101.017 62.04 101.055 61.8133 101.129 61.536C101.204 61.2533 101.305 60.9467 101.433 60.616C101.561 60.28 101.708 59.9387 101.873 59.592C102.044 59.24 102.223 58.9013 102.409 58.576C102.596 58.2507 102.785 57.96 102.977 57.704C103.175 57.4427 103.361 57.2373 103.537 57.088C103.719 56.9333 103.884 56.856 104.033 56.856C104.039 56.856 104.047 56.856 104.057 56.856C104.175 56.856 104.281 56.8667 104.377 56.888C104.479 56.904 104.567 56.96 104.641 57.056C104.721 57.1467 104.791 57.2987 104.849 57.512C104.908 57.7253 104.959 58.0267 105.001 58.416C105.012 58.512 105.02 58.6267 105.025 58.76C105.031 58.888 105.033 59.0213 105.033 59.16C105.209 58.7653 105.401 58.3947 105.609 58.048C105.823 57.7013 106.041 57.3947 106.265 57.128C106.495 56.8613 106.721 56.6533 106.945 56.504C107.169 56.3547 107.377 56.28 107.569 56.28C107.793 56.28 108.001 56.336 108.193 56.448C108.385 56.5547 108.54 56.736 108.657 56.992C108.775 57.248 108.833 57.5973 108.833 58.04C108.833 58.5093 108.791 58.9653 108.705 59.408C108.62 59.8453 108.513 60.2587 108.385 60.648C108.257 61.0373 108.129 61.3947 108.001 61.72C107.873 62.04 107.767 62.3173 107.681 62.552C107.612 62.7173 107.532 62.8533 107.441 62.96C107.351 63.0613 107.22 63.112 107.049 63.112ZM113.82 63.416C113.623 63.416 113.417 63.368 113.204 63.272C112.991 63.1813 112.809 63.0267 112.66 62.808C112.516 62.5893 112.444 62.2987 112.444 61.936C112.444 61.552 112.476 61.1547 112.54 60.744C112.609 60.328 112.697 59.92 112.804 59.52C112.916 59.1147 113.036 58.7333 113.164 58.376C113.297 58.0187 113.428 57.7013 113.556 57.424C113.689 57.1467 113.812 56.9307 113.924 56.776C114.041 56.616 114.135 56.536 114.204 56.536C114.348 56.536 114.476 56.5893 114.588 56.696C114.705 56.8027 114.764 56.9653 114.764 57.184C114.764 57.2373 114.732 57.368 114.668 57.576C114.609 57.7787 114.532 58.032 114.436 58.336C114.345 58.64 114.244 58.9707 114.132 59.328C114.025 59.68 113.924 60.0373 113.828 60.4C113.737 60.7627 113.66 61.104 113.596 61.424C113.537 61.744 113.508 62.0187 113.508 62.248C113.508 62.312 113.545 62.344 113.62 62.344C113.727 62.344 113.884 62.3173 114.092 62.264C114.305 62.2107 114.537 62.144 114.788 62.064C115.044 61.9787 115.289 61.896 115.524 61.816C115.759 61.736 115.959 61.6693 116.124 61.616C116.289 61.5627 116.383 61.536 116.404 61.536C116.537 61.536 116.644 61.5733 116.724 61.648C116.804 61.7227 116.844 61.8293 116.844 61.968C116.844 62.064 116.78 62.176 116.652 62.304C116.524 62.4267 116.353 62.5547 116.14 62.688C115.927 62.816 115.687 62.9333 115.42 63.04C115.159 63.152 114.889 63.2427 114.612 63.312C114.335 63.3813 114.071 63.416 113.82 63.416Z" fill="white"/>
<path d="M67.44 93.568C67.6053 93.568 67.7227 93.6133 67.792 93.704C67.8613 93.7893 67.896 93.88 67.896 93.976C67.896 94.1093 67.8293 94.2507 67.696 94.4C67.5627 94.5493 67.3893 94.688 67.176 94.816C66.968 94.9387 66.744 95.04 66.504 95.12C66.264 95.2 66.0347 95.24 65.816 95.24C65.4907 95.24 65.1787 95.152 64.88 94.976C64.5867 94.7947 64.3467 94.5413 64.16 94.216C63.9787 93.8907 63.888 93.504 63.888 93.056C63.888 92.688 63.9573 92.3227 64.096 91.96C64.24 91.5973 64.4293 91.248 64.664 90.912C64.904 90.576 65.1653 90.264 65.448 89.976C65.736 89.688 66.024 89.4373 66.312 89.224C66.6053 89.0107 66.8747 88.8453 67.12 88.728C67.3653 88.6053 67.5627 88.544 67.712 88.544C67.8987 88.544 68.0373 88.592 68.128 88.688C68.224 88.7787 68.272 88.9067 68.272 89.072C68.272 89.2053 68.2453 89.3093 68.192 89.384C68.144 89.4533 68.0667 89.5147 67.96 89.568C67.6187 89.744 67.272 89.9573 66.92 90.208C66.5733 90.4587 66.256 90.736 65.968 91.04C65.68 91.3387 65.448 91.6533 65.272 91.984C65.096 92.3147 65.008 92.6507 65.008 92.992C65.008 93.3653 65.0827 93.648 65.232 93.84C65.3813 94.032 65.584 94.128 65.84 94.128C65.968 94.128 66.1067 94.1013 66.256 94.048C66.4053 93.9893 66.552 93.9227 66.696 93.848C66.8453 93.7733 66.984 93.7093 67.112 93.656C67.2453 93.5973 67.3547 93.568 67.44 93.568ZM71.7308 95.312C71.5174 95.312 71.3574 95.2533 71.2508 95.136C71.1441 95.0187 71.0907 94.8987 71.0907 94.776C71.0907 94.632 71.1174 94.5227 71.1708 94.448C71.2241 94.3733 71.3281 94.3173 71.4828 94.28C71.6854 94.2373 71.8961 94.184 72.1148 94.12C72.3388 94.056 72.5521 93.9893 72.7548 93.92C72.9628 93.8453 73.1441 93.7707 73.2988 93.696C73.4534 93.616 73.5654 93.5413 73.6348 93.472C73.5494 93.424 73.4134 93.368 73.2268 93.304C73.0401 93.2347 72.8321 93.1547 72.6028 93.064C72.3788 92.968 72.1628 92.856 71.9548 92.728C71.7468 92.6 71.5761 92.4507 71.4427 92.28C71.3094 92.1093 71.2427 91.9147 71.2427 91.696C71.2427 91.392 71.3201 91.1067 71.4748 90.84C71.6294 90.5733 71.8348 90.3253 72.0908 90.096C72.3468 89.8667 72.6241 89.656 72.9227 89.464C73.2268 89.272 73.5281 89.0987 73.8268 88.944C74.1308 88.784 74.4028 88.6427 74.6428 88.52C74.7334 88.4667 74.8188 88.432 74.8988 88.416C74.9841 88.3947 75.0614 88.384 75.1308 88.384C75.3708 88.384 75.5361 88.4427 75.6267 88.56C75.7174 88.6773 75.7628 88.7973 75.7628 88.92C75.7628 89.0053 75.7228 89.1067 75.6428 89.224C75.5628 89.336 75.4348 89.44 75.2587 89.536C75.0881 89.632 74.8614 89.7013 74.5788 89.744C74.5308 89.7493 74.4881 89.7547 74.4508 89.76C74.2374 89.8667 74.0081 89.9947 73.7628 90.144C73.5174 90.2933 73.2854 90.4507 73.0668 90.616C72.8534 90.776 72.6774 90.936 72.5388 91.096C72.4001 91.256 72.3307 91.4 72.3307 91.528C72.3307 91.672 72.3894 91.8027 72.5068 91.92C72.6241 92.032 72.7734 92.136 72.9548 92.232C73.1414 92.3227 73.3361 92.4107 73.5388 92.496C73.7468 92.5813 73.9414 92.6693 74.1228 92.76C74.3094 92.8453 74.4614 92.9413 74.5788 93.048C74.6961 93.1547 74.7548 93.2747 74.7548 93.408C74.7548 93.5893 74.6934 93.7627 74.5708 93.928C74.4481 94.0933 74.2881 94.248 74.0908 94.392C73.8934 94.5307 73.6774 94.656 73.4428 94.768C73.2081 94.88 72.9761 94.976 72.7468 95.056C72.5228 95.1413 72.3201 95.2053 72.1388 95.248C71.9574 95.2907 71.8214 95.312 71.7308 95.312ZM78.7004 95.312C78.4871 95.312 78.3271 95.2533 78.2204 95.136C78.1138 95.0187 78.0604 94.8987 78.0604 94.776C78.0604 94.632 78.0871 94.5227 78.1404 94.448C78.1938 94.3733 78.2978 94.3173 78.4524 94.28C78.6551 94.2373 78.8658 94.184 79.0844 94.12C79.3084 94.056 79.5218 93.9893 79.7244 93.92C79.9324 93.8453 80.1138 93.7707 80.2684 93.696C80.4231 93.616 80.5351 93.5413 80.6044 93.472C80.5191 93.424 80.3831 93.368 80.1964 93.304C80.0098 93.2347 79.8018 93.1547 79.5724 93.064C79.3484 92.968 79.1324 92.856 78.9244 92.728C78.7164 92.6 78.5458 92.4507 78.4124 92.28C78.2791 92.1093 78.2124 91.9147 78.2124 91.696C78.2124 91.392 78.2898 91.1067 78.4444 90.84C78.5991 90.5733 78.8044 90.3253 79.0604 90.096C79.3164 89.8667 79.5938 89.656 79.8924 89.464C80.1964 89.272 80.4978 89.0987 80.7964 88.944C81.1004 88.784 81.3724 88.6427 81.6124 88.52C81.7031 88.4667 81.7884 88.432 81.8684 88.416C81.9538 88.3947 82.0311 88.384 82.1004 88.384C82.3404 88.384 82.5058 88.4427 82.5964 88.56C82.6871 88.6773 82.7324 88.7973 82.7324 88.92C82.7324 89.0053 82.6924 89.1067 82.6124 89.224C82.5324 89.336 82.4044 89.44 82.2284 89.536C82.0578 89.632 81.8311 89.7013 81.5484 89.744C81.5004 89.7493 81.4578 89.7547 81.4204 89.76C81.2071 89.8667 80.9778 89.9947 80.7324 90.144C80.4871 90.2933 80.2551 90.4507 80.0364 90.616C79.8231 90.776 79.6471 90.936 79.5084 91.096C79.3698 91.256 79.3004 91.4 79.3004 91.528C79.3004 91.672 79.3591 91.8027 79.4764 91.92C79.5938 92.032 79.7431 92.136 79.9244 92.232C80.1111 92.3227 80.3058 92.4107 80.5084 92.496C80.7164 92.5813 80.9111 92.6693 81.0924 92.76C81.2791 92.8453 81.4311 92.9413 81.5484 93.048C81.6658 93.1547 81.7244 93.2747 81.7244 93.408C81.7244 93.5893 81.6631 93.7627 81.5404 93.928C81.4178 94.0933 81.2578 94.248 81.0604 94.392C80.8631 94.5307 80.6471 94.656 80.4124 94.768C80.1778 94.88 79.9458 94.976 79.7164 95.056C79.4924 95.1413 79.2898 95.2053 79.1084 95.248C78.9271 95.2907 78.7911 95.312 78.7004 95.312Z" fill="white"/>
<path d="M162.592 42.96C162.395 42.96 162.248 42.8827 162.152 42.728C162.056 42.568 162.008 42.28 162.008 41.864C162.008 41.3307 162.056 40.8053 162.152 40.288C162.253 39.7707 162.395 39.2853 162.576 38.832C162.763 38.3787 162.987 37.9813 163.248 37.64C163.515 37.2933 163.816 37.024 164.152 36.832C164.488 36.6347 164.853 36.536 165.248 36.536C165.835 36.536 166.269 36.6933 166.552 37.008C166.84 37.3173 166.984 37.7733 166.984 38.376C166.984 38.696 166.92 38.9813 166.792 39.232C166.664 39.4773 166.496 39.672 166.288 39.816C166.085 39.9547 165.867 40.024 165.632 40.024C165.499 40.024 165.357 40 165.208 39.952C165.496 40.3253 165.784 40.6507 166.072 40.928C166.365 41.2053 166.656 41.4613 166.944 41.696C167.237 41.9253 167.531 42.16 167.824 42.4C167.979 42.5227 168.067 42.6533 168.088 42.792C168.109 42.9307 168.072 43.048 167.976 43.144C167.885 43.2453 167.744 43.296 167.552 43.296C167.403 43.296 167.213 43.2293 166.984 43.096C166.755 42.968 166.507 42.7947 166.24 42.576C165.973 42.352 165.707 42.104 165.44 41.832C165.179 41.56 164.939 41.2827 164.72 41C164.507 40.7173 164.333 40.448 164.2 40.192C164.072 39.936 164.008 39.7173 164.008 39.536C164.008 39.3653 164.053 39.2347 164.144 39.144C164.235 39.048 164.352 39 164.496 39C164.613 39 164.72 39.016 164.816 39.048C164.917 39.08 165.024 39.096 165.136 39.096C165.253 39.096 165.376 39.064 165.504 39C165.637 38.936 165.749 38.8373 165.84 38.704C165.931 38.5653 165.976 38.3893 165.976 38.176C165.976 37.9413 165.909 37.784 165.776 37.704C165.648 37.624 165.475 37.584 165.256 37.584C164.952 37.584 164.677 37.6907 164.432 37.904C164.187 38.1173 163.973 38.4187 163.792 38.808C163.611 39.1973 163.464 39.656 163.352 40.184C163.245 40.712 163.173 41.288 163.136 41.912C163.115 42.3173 163.061 42.5947 162.976 42.744C162.891 42.888 162.763 42.96 162.592 42.96ZM172.479 43.064C172.335 43.064 172.178 43.0293 172.007 42.96C171.842 42.8853 171.684 42.76 171.535 42.584C171.386 42.408 171.263 42.1653 171.167 41.856C171.071 41.5467 171.023 41.1547 171.023 40.68C171.023 40.328 171.068 39.9707 171.159 39.608C171.255 39.24 171.404 38.8933 171.607 38.568C171.81 38.2427 172.071 37.96 172.391 37.72C172.716 37.48 173.106 37.312 173.559 37.216C173.746 37.1733 173.959 37.1333 174.199 37.096C174.444 37.0533 174.692 37.016 174.943 36.984C175.194 36.9467 175.431 36.9173 175.655 36.896C175.884 36.8747 176.076 36.864 176.231 36.864C176.487 36.864 176.679 36.8987 176.807 36.968C176.935 37.0373 177.02 37.1173 177.063 37.208C177.106 37.2933 177.127 37.3707 177.127 37.44C177.127 37.5253 177.1 37.6107 177.047 37.696C176.999 37.7813 176.866 37.8373 176.647 37.864C176.599 37.8693 176.498 37.8827 176.343 37.904C176.188 37.92 176.002 37.944 175.783 37.976C175.57 38.008 175.343 38.0427 175.103 38.08C174.868 38.112 174.639 38.1467 174.415 38.184C174.196 38.216 174.007 38.2453 173.847 38.272C173.495 38.336 173.21 38.4427 172.991 38.592C172.772 38.736 172.602 38.9067 172.479 39.104C172.362 39.3013 172.276 39.5093 172.223 39.728C172.436 39.68 172.658 39.632 172.887 39.584C173.116 39.536 173.332 39.4933 173.535 39.456C173.743 39.4187 173.922 39.3893 174.071 39.368C174.22 39.3467 174.322 39.336 174.375 39.336C174.583 39.336 174.708 39.3627 174.751 39.416C174.799 39.4693 174.823 39.552 174.823 39.664C174.823 39.7653 174.732 39.8827 174.551 40.016C174.37 40.144 174.082 40.2747 173.687 40.408C173.292 40.5413 172.775 40.6587 172.135 40.76C172.135 40.7653 172.135 40.768 172.135 40.768C172.124 40.8747 172.116 40.9973 172.111 41.136C172.106 41.2693 172.103 41.4027 172.103 41.536C172.103 41.6693 172.111 41.7787 172.127 41.864C172.143 41.9493 172.172 41.992 172.215 41.992C172.332 41.992 172.495 41.968 172.703 41.92C172.911 41.872 173.13 41.8133 173.359 41.744C173.588 41.6747 173.802 41.608 173.999 41.544C174.196 41.4747 174.34 41.4213 174.431 41.384C174.564 41.3307 174.698 41.2773 174.831 41.224C174.97 41.1707 175.079 41.144 175.159 41.144C175.239 41.144 175.308 41.176 175.367 41.24C175.426 41.2987 175.444 41.3893 175.423 41.512C175.418 41.5653 175.362 41.6533 175.255 41.776C175.154 41.8933 175.012 42.0267 174.831 42.176C174.655 42.32 174.444 42.4613 174.199 42.6C173.959 42.7333 173.692 42.8453 173.399 42.936C173.111 43.0213 172.804 43.064 172.479 43.064ZM179.128 43.216C179 43.216 178.888 43.1787 178.792 43.104C178.696 43.0293 178.648 42.8693 178.648 42.624C178.648 42.512 178.688 42.3333 178.768 42.088C178.848 41.8427 178.955 41.5547 179.088 41.224C179.227 40.888 179.382 40.5333 179.552 40.16C179.723 39.7867 179.902 39.416 180.088 39.048C180.275 38.68 180.456 38.3387 180.632 38.024C180.808 37.7093 180.971 37.4427 181.12 37.224C181.275 37 181.4 36.8507 181.496 36.776C181.635 36.6747 181.774 36.624 181.912 36.624C181.987 36.624 182.059 36.632 182.128 36.648C182.203 36.664 182.264 36.6907 182.312 36.728C182.424 36.7973 182.523 36.9307 182.608 37.128C182.699 37.32 182.779 37.552 182.848 37.824C182.923 38.096 182.984 38.3893 183.032 38.704C183.086 39.0133 183.131 39.32 183.168 39.624C183.371 39.5973 183.51 39.584 183.584 39.584C183.744 39.584 183.886 39.608 184.008 39.656C184.131 39.6987 184.195 39.7893 184.2 39.928C184.211 40.0613 184.168 40.1733 184.072 40.264C183.982 40.3547 183.864 40.4213 183.72 40.464C183.656 40.4853 183.502 40.52 183.256 40.568C183.272 40.84 183.28 41.0693 183.28 41.256C183.28 41.7307 183.254 42.0987 183.2 42.36C183.152 42.6213 183.088 42.808 183.008 42.92C182.934 43.032 182.854 43.0987 182.768 43.12C182.688 43.1467 182.616 43.16 182.552 43.16C182.547 43.16 182.542 43.16 182.536 43.16C182.382 43.16 182.267 43.12 182.192 43.04C182.123 42.96 182.088 42.8267 182.088 42.64V42.072C182.088 41.896 182.086 41.6987 182.08 41.48C182.075 41.2613 182.064 41.0293 182.048 40.784C181.734 40.8373 181.419 40.8907 181.104 40.944C180.795 40.992 180.528 41.0347 180.304 41.072C180.203 41.312 180.115 41.528 180.04 41.72C179.966 41.9067 179.915 42.0533 179.888 42.16C179.808 42.4213 179.734 42.6267 179.664 42.776C179.595 42.92 179.528 43.0213 179.464 43.08C179.406 43.144 179.35 43.1813 179.296 43.192C179.243 43.208 179.187 43.216 179.128 43.216ZM180.744 40.088C180.968 40.0347 181.184 39.9867 181.392 39.944C181.6 39.896 181.798 39.8533 181.984 39.816C181.958 39.4853 181.926 39.1627 181.888 38.848C181.851 38.5333 181.808 38.2533 181.76 38.008C181.622 38.2747 181.459 38.5947 181.272 38.968C181.091 39.336 180.915 39.7093 180.744 40.088ZM190.802 41.568C190.968 41.568 191.085 41.6133 191.154 41.704C191.224 41.7893 191.258 41.88 191.258 41.976C191.258 42.1093 191.192 42.2507 191.058 42.4C190.925 42.5493 190.752 42.688 190.538 42.816C190.33 42.9387 190.106 43.04 189.866 43.12C189.626 43.2 189.397 43.24 189.178 43.24C188.853 43.24 188.541 43.152 188.242 42.976C187.949 42.7947 187.709 42.5413 187.522 42.216C187.341 41.8907 187.25 41.504 187.25 41.056C187.25 40.688 187.32 40.3227 187.458 39.96C187.602 39.5973 187.792 39.248 188.026 38.912C188.266 38.576 188.528 38.264 188.81 37.976C189.098 37.688 189.386 37.4373 189.674 37.224C189.968 37.0107 190.237 36.8453 190.482 36.728C190.728 36.6053 190.925 36.544 191.074 36.544C191.261 36.544 191.4 36.592 191.49 36.688C191.586 36.7787 191.634 36.9067 191.634 37.072C191.634 37.2053 191.608 37.3093 191.554 37.384C191.506 37.4533 191.429 37.5147 191.322 37.568C190.981 37.744 190.634 37.9573 190.282 38.208C189.936 38.4587 189.618 38.736 189.33 39.04C189.042 39.3387 188.81 39.6533 188.634 39.984C188.458 40.3147 188.37 40.6507 188.37 40.992C188.37 41.3653 188.445 41.648 188.594 41.84C188.744 42.032 188.946 42.128 189.202 42.128C189.33 42.128 189.469 42.1013 189.618 42.048C189.768 41.9893 189.914 41.9227 190.058 41.848C190.208 41.7733 190.346 41.7093 190.474 41.656C190.608 41.5973 190.717 41.568 190.802 41.568ZM195.24 38.128C194.984 38.128 194.795 38.104 194.672 38.056C194.555 38.0027 194.477 37.9413 194.44 37.872C194.408 37.7973 194.392 37.7307 194.392 37.672C194.392 37.5973 194.435 37.512 194.52 37.416C194.605 37.3147 194.771 37.24 195.016 37.192C195.261 37.1387 195.552 37.0907 195.888 37.048C196.224 37 196.581 36.96 196.96 36.928C197.339 36.8907 197.723 36.8587 198.112 36.832C198.501 36.8053 198.872 36.7867 199.224 36.776C199.576 36.76 199.888 36.752 200.16 36.752C200.443 36.752 200.661 36.768 200.816 36.8C200.971 36.832 201.08 36.872 201.144 36.92C201.213 36.968 201.253 37.0187 201.264 37.072C201.28 37.1253 201.288 37.176 201.288 37.224C201.288 37.2347 201.288 37.2427 201.288 37.248C201.288 37.312 201.272 37.3813 201.24 37.456C201.213 37.5307 201.152 37.5947 201.056 37.648C200.96 37.696 200.816 37.72 200.624 37.72C200.555 37.72 200.4 37.7307 200.16 37.752C199.92 37.7733 199.627 37.8 199.28 37.832C198.933 37.864 198.565 37.896 198.176 37.928C198.117 38.168 198.051 38.448 197.976 38.768C197.907 39.088 197.835 39.424 197.76 39.776C197.691 40.128 197.624 40.4747 197.56 40.816C197.496 41.152 197.443 41.464 197.4 41.752C197.357 42.0347 197.328 42.2667 197.312 42.448C197.291 42.6933 197.219 42.8667 197.096 42.968C196.979 43.064 196.861 43.112 196.744 43.112C196.659 43.112 196.573 43.0933 196.488 43.056C196.403 43.024 196.333 42.952 196.28 42.84C196.227 42.7227 196.2 42.5493 196.2 42.32C196.2 42.0853 196.221 41.7973 196.264 41.456C196.307 41.1093 196.363 40.7387 196.432 40.344C196.507 39.9493 196.589 39.552 196.68 39.152C196.776 38.752 196.875 38.3787 196.976 38.032C196.619 38.0587 196.288 38.0827 195.984 38.104C195.68 38.12 195.432 38.128 195.24 38.128Z" fill="white"/>
<path d="M142.82 70.59C142.582 70.59 142.414 70.569 142.316 70.527C142.218 70.4803 142.16 70.4243 142.141 70.359C142.122 70.2937 142.113 70.226 142.113 70.156V70.149C142.113 70.0697 142.155 69.981 142.239 69.883C142.328 69.785 142.461 69.7197 142.638 69.687C142.89 69.6263 143.163 69.5843 143.457 69.561C143.751 69.533 144.038 69.5167 144.318 69.512C144.603 69.5027 144.852 69.498 145.067 69.498C145.282 69.5027 145.445 69.5377 145.557 69.603C145.669 69.6637 145.744 69.7337 145.781 69.813C145.823 69.8877 145.844 69.953 145.844 70.009C145.844 70.0837 145.816 70.1653 145.76 70.254C145.704 70.338 145.58 70.38 145.389 70.38C145.319 70.38 145.221 70.3847 145.095 70.394C144.969 70.4033 144.829 70.4173 144.675 70.436C144.661 70.6647 144.631 70.9517 144.584 71.297C144.537 71.6423 144.467 72.0157 144.374 72.417C144.285 72.8137 144.169 73.215 144.024 73.621C143.884 74.0223 143.709 74.4003 143.499 74.755C143.294 75.105 143.051 75.406 142.771 75.658C142.496 75.91 142.176 76.0827 141.812 76.176C141.737 76.1947 141.672 76.2087 141.616 76.218C141.565 76.232 141.502 76.239 141.427 76.239C141.292 76.239 141.18 76.211 141.091 76.155C141.002 76.099 140.946 76.015 140.923 75.903C140.9 75.7677 140.916 75.6393 140.972 75.518C141.023 75.4013 141.121 75.322 141.266 75.28C141.607 75.168 141.901 75.007 142.148 74.797C142.4 74.5823 142.617 74.2953 142.799 73.936C142.986 73.572 143.144 73.1147 143.275 72.564C143.41 72.0087 143.527 71.3343 143.625 70.541C143.466 70.555 143.317 70.5667 143.177 70.576C143.037 70.5853 142.918 70.59 142.82 70.59ZM148.427 75.273C148.241 75.273 148.101 75.2217 148.007 75.119C147.914 75.0163 147.867 74.9113 147.867 74.804C147.867 74.678 147.891 74.5823 147.937 74.517C147.984 74.4517 148.075 74.4027 148.21 74.37C148.388 74.3327 148.572 74.286 148.763 74.23C148.959 74.174 149.146 74.1157 149.323 74.055C149.505 73.9897 149.664 73.9243 149.799 73.859C149.935 73.789 150.033 73.7237 150.093 73.663C150.019 73.621 149.9 73.572 149.736 73.516C149.573 73.4553 149.391 73.3853 149.19 73.306C148.994 73.222 148.805 73.124 148.623 73.012C148.441 72.9 148.292 72.7693 148.175 72.62C148.059 72.4707 148 72.3003 148 72.109C148 71.843 148.068 71.5933 148.203 71.36C148.339 71.1267 148.518 70.9097 148.742 70.709C148.966 70.5083 149.209 70.324 149.47 70.156C149.736 69.988 150 69.8363 150.261 69.701C150.527 69.561 150.765 69.4373 150.975 69.33C151.055 69.2833 151.129 69.253 151.199 69.239C151.274 69.2203 151.342 69.211 151.402 69.211C151.612 69.211 151.757 69.2623 151.836 69.365C151.916 69.4677 151.955 69.5727 151.955 69.68C151.955 69.7547 151.92 69.8433 151.85 69.946C151.78 70.044 151.668 70.135 151.514 70.219C151.365 70.303 151.167 70.3637 150.919 70.401C150.877 70.4057 150.84 70.4103 150.807 70.415C150.621 70.5083 150.42 70.6203 150.205 70.751C149.991 70.8817 149.788 71.0193 149.596 71.164C149.41 71.304 149.256 71.444 149.134 71.584C149.013 71.724 148.952 71.85 148.952 71.962C148.952 72.088 149.004 72.2023 149.106 72.305C149.209 72.403 149.34 72.494 149.498 72.578C149.662 72.6573 149.832 72.7343 150.009 72.809C150.191 72.8837 150.362 72.9607 150.52 73.04C150.684 73.1147 150.817 73.1987 150.919 73.292C151.022 73.3853 151.073 73.4903 151.073 73.607C151.073 73.7657 151.02 73.9173 150.912 74.062C150.805 74.2067 150.665 74.342 150.492 74.468C150.32 74.5893 150.131 74.699 149.925 74.797C149.72 74.895 149.517 74.979 149.316 75.049C149.12 75.1237 148.943 75.1797 148.784 75.217C148.626 75.2543 148.507 75.273 148.427 75.273Z" fill="white"/>
<path d="M187.83 119.61C187.637 119.61 187.483 119.557 187.37 119.45C187.263 119.35 187.21 119.207 187.21 119.02C187.21 118.847 187.257 118.7 187.35 118.58C187.443 118.453 187.623 118.333 187.89 118.22C187.91 118.213 187.93 118.207 187.95 118.2C187.783 118.167 187.667 118.073 187.6 117.92C187.54 117.767 187.51 117.59 187.51 117.39C187.51 117.277 187.53 117.093 187.57 116.84C187.61 116.587 187.66 116.297 187.72 115.97C187.78 115.643 187.843 115.32 187.91 115C187.977 114.673 188.033 114.387 188.08 114.14C188.207 113.573 188.37 113.073 188.57 112.64C188.77 112.207 189.04 111.87 189.38 111.63C189.72 111.383 190.157 111.26 190.69 111.26C191.097 111.26 191.497 111.347 191.89 111.52C192.29 111.687 192.653 111.923 192.98 112.23C193.307 112.537 193.567 112.897 193.76 113.31C193.96 113.723 194.06 114.177 194.06 114.67C194.06 115.23 193.84 115.793 193.4 116.36C192.96 116.927 192.343 117.47 191.55 117.99C190.763 118.503 189.843 118.967 188.79 119.38C188.617 119.447 188.46 119.5 188.32 119.54C188.187 119.587 188.023 119.61 187.83 119.61ZM188.69 117.91C189.657 117.523 190.437 117.153 191.03 116.8C191.623 116.447 192.053 116.073 192.32 115.68C192.593 115.287 192.73 114.84 192.73 114.34C192.73 114.06 192.637 113.793 192.45 113.54C192.263 113.287 192.023 113.083 191.73 112.93C191.437 112.77 191.127 112.69 190.8 112.69C190.447 112.69 190.163 112.833 189.95 113.12C189.737 113.4 189.567 113.88 189.44 114.56C189.38 114.833 189.317 115.13 189.25 115.45C189.19 115.763 189.13 116.067 189.07 116.36C189.017 116.647 188.97 116.887 188.93 117.08C188.897 117.273 188.877 117.387 188.87 117.42C188.837 117.62 188.777 117.783 188.69 117.91ZM200.105 119.08C199.925 119.08 199.728 119.037 199.515 118.95C199.308 118.857 199.111 118.7 198.925 118.48C198.738 118.26 198.585 117.957 198.465 117.57C198.345 117.183 198.285 116.693 198.285 116.1C198.285 115.66 198.341 115.213 198.455 114.76C198.575 114.3 198.761 113.867 199.015 113.46C199.268 113.053 199.595 112.7 199.995 112.4C200.401 112.1 200.888 111.89 201.455 111.77C201.688 111.717 201.955 111.667 202.255 111.62C202.561 111.567 202.871 111.52 203.185 111.48C203.498 111.433 203.795 111.397 204.075 111.37C204.361 111.343 204.601 111.33 204.795 111.33C205.115 111.33 205.355 111.373 205.515 111.46C205.675 111.547 205.781 111.647 205.835 111.76C205.888 111.867 205.915 111.963 205.915 112.05C205.915 112.157 205.881 112.263 205.815 112.37C205.755 112.477 205.588 112.547 205.315 112.58C205.255 112.587 205.128 112.603 204.935 112.63C204.741 112.65 204.508 112.68 204.235 112.72C203.968 112.76 203.685 112.803 203.385 112.85C203.091 112.89 202.805 112.933 202.525 112.98C202.251 113.02 202.015 113.057 201.815 113.09C201.375 113.17 201.018 113.303 200.745 113.49C200.471 113.67 200.258 113.883 200.105 114.13C199.958 114.377 199.851 114.637 199.785 114.91C200.051 114.85 200.328 114.79 200.615 114.73C200.901 114.67 201.171 114.617 201.425 114.57C201.685 114.523 201.908 114.487 202.095 114.46C202.281 114.433 202.408 114.42 202.475 114.42C202.735 114.42 202.891 114.453 202.945 114.52C203.005 114.587 203.035 114.69 203.035 114.83C203.035 114.957 202.921 115.103 202.695 115.27C202.468 115.43 202.108 115.593 201.615 115.76C201.121 115.927 200.475 116.073 199.675 116.2C199.675 116.207 199.675 116.21 199.675 116.21C199.661 116.343 199.651 116.497 199.645 116.67C199.638 116.837 199.635 117.003 199.635 117.17C199.635 117.337 199.645 117.473 199.665 117.58C199.685 117.687 199.721 117.74 199.775 117.74C199.921 117.74 200.125 117.71 200.385 117.65C200.645 117.59 200.918 117.517 201.205 117.43C201.491 117.343 201.758 117.26 202.005 117.18C202.251 117.093 202.431 117.027 202.545 116.98C202.711 116.913 202.878 116.847 203.045 116.78C203.218 116.713 203.355 116.68 203.455 116.68C203.555 116.68 203.641 116.72 203.715 116.8C203.788 116.873 203.811 116.987 203.785 117.14C203.778 117.207 203.708 117.317 203.575 117.47C203.448 117.617 203.271 117.783 203.045 117.97C202.825 118.15 202.561 118.327 202.255 118.5C201.955 118.667 201.621 118.807 201.255 118.92C200.895 119.027 200.511 119.08 200.105 119.08ZM210.681 119.87C210.495 119.87 210.308 119.753 210.121 119.52C209.941 119.287 209.775 118.917 209.621 118.41C209.468 117.903 209.345 117.243 209.251 116.43C209.165 115.61 209.121 114.613 209.121 113.44C209.121 112.787 209.151 112.277 209.211 111.91C209.271 111.537 209.351 111.263 209.451 111.09C209.558 110.917 209.678 110.807 209.811 110.76C209.945 110.713 210.081 110.69 210.221 110.69C210.401 110.69 210.555 110.757 210.681 110.89C210.815 111.023 210.881 111.207 210.881 111.44C210.881 111.647 210.811 111.903 210.671 112.21C210.631 112.537 210.605 112.83 210.591 113.09C210.585 113.343 210.581 113.613 210.581 113.9C210.581 114.353 210.588 114.817 210.601 115.29C210.621 115.757 210.648 116.207 210.681 116.64C210.715 117.067 210.751 117.447 210.791 117.78C210.958 117.373 211.145 116.923 211.351 116.43C211.558 115.937 211.765 115.44 211.971 114.94C212.185 114.44 212.385 113.97 212.571 113.53C212.765 113.083 212.928 112.703 213.061 112.39C213.201 112.077 213.295 111.863 213.341 111.75C213.508 111.35 213.688 111.063 213.881 110.89C214.075 110.717 214.271 110.63 214.471 110.63C214.631 110.63 214.768 110.68 214.881 110.78C214.995 110.88 215.051 111.07 215.051 111.35C215.051 111.403 214.998 111.56 214.891 111.82C214.791 112.08 214.651 112.413 214.471 112.82C214.298 113.22 214.101 113.667 213.881 114.16C213.668 114.647 213.448 115.15 213.221 115.67C212.975 116.237 212.728 116.773 212.481 117.28C212.241 117.787 212.008 118.233 211.781 118.62C211.561 119.007 211.355 119.31 211.161 119.53C210.975 119.757 210.815 119.87 210.681 119.87Z" fill="white"/>
<path d="M36.416 39.128C36.16 39.128 35.9707 39.104 35.848 39.056C35.7307 39.0027 35.6533 38.9413 35.616 38.872C35.584 38.7973 35.568 38.7307 35.568 38.672C35.568 38.5973 35.6107 38.512 35.696 38.416C35.7813 38.3147 35.9467 38.24 36.192 38.192C36.4373 38.1387 36.728 38.0907 37.064 38.048C37.4 38 37.7573 37.96 38.136 37.928C38.5147 37.8907 38.8987 37.8587 39.288 37.832C39.6773 37.8053 40.048 37.7867 40.4 37.776C40.752 37.76 41.064 37.752 41.336 37.752C41.6187 37.752 41.8373 37.768 41.992 37.8C42.1467 37.832 42.256 37.872 42.32 37.92C42.3893 37.968 42.4293 38.0187 42.44 38.072C42.456 38.1253 42.464 38.176 42.464 38.224C42.464 38.2347 42.464 38.2427 42.464 38.248C42.464 38.312 42.448 38.3813 42.416 38.456C42.3893 38.5307 42.328 38.5947 42.232 38.648C42.136 38.696 41.992 38.72 41.8 38.72C41.7307 38.72 41.576 38.7307 41.336 38.752C41.096 38.7733 40.8027 38.8 40.456 38.832C40.1093 38.864 39.7413 38.896 39.352 38.928C39.2933 39.168 39.2267 39.448 39.152 39.768C39.0827 40.088 39.0107 40.424 38.936 40.776C38.8667 41.128 38.8 41.4747 38.736 41.816C38.672 42.152 38.6187 42.464 38.576 42.752C38.5333 43.0347 38.504 43.2667 38.488 43.448C38.4667 43.6933 38.3947 43.8667 38.272 43.968C38.1547 44.064 38.0373 44.112 37.92 44.112C37.8347 44.112 37.7493 44.0933 37.664 44.056C37.5787 44.024 37.5093 43.952 37.456 43.84C37.4027 43.7227 37.376 43.5493 37.376 43.32C37.376 43.0853 37.3973 42.7973 37.44 42.456C37.4827 42.1093 37.5387 41.7387 37.608 41.344C37.6827 40.9493 37.7653 40.552 37.856 40.152C37.952 39.752 38.0507 39.3787 38.152 39.032C37.7947 39.0587 37.464 39.0827 37.16 39.104C36.856 39.12 36.608 39.128 36.416 39.128ZM44.5667 44.312C44.3534 44.312 44.1934 44.2533 44.0867 44.136C43.98 44.0187 43.9267 43.8987 43.9267 43.776C43.9267 43.632 43.9534 43.5227 44.0067 43.448C44.06 43.3733 44.164 43.3173 44.3187 43.28C44.5214 43.2373 44.732 43.184 44.9507 43.12C45.1747 43.056 45.388 42.9893 45.5907 42.92C45.7987 42.8453 45.98 42.7707 46.1347 42.696C46.2894 42.616 46.4014 42.5413 46.4707 42.472C46.3854 42.424 46.2494 42.368 46.0627 42.304C45.876 42.2347 45.668 42.1547 45.4387 42.064C45.2147 41.968 44.9987 41.856 44.7907 41.728C44.5827 41.6 44.412 41.4507 44.2787 41.28C44.1454 41.1093 44.0787 40.9147 44.0787 40.696C44.0787 40.392 44.156 40.1067 44.3107 39.84C44.4654 39.5733 44.6707 39.3253 44.9267 39.096C45.1827 38.8667 45.46 38.656 45.7587 38.464C46.0627 38.272 46.364 38.0987 46.6627 37.944C46.9667 37.784 47.2387 37.6427 47.4787 37.52C47.5694 37.4667 47.6547 37.432 47.7347 37.416C47.82 37.3947 47.8974 37.384 47.9667 37.384C48.2067 37.384 48.372 37.4427 48.4627 37.56C48.5534 37.6773 48.5987 37.7973 48.5987 37.92C48.5987 38.0053 48.5587 38.1067 48.4787 38.224C48.3987 38.336 48.2707 38.44 48.0947 38.536C47.924 38.632 47.6974 38.7013 47.4147 38.744C47.3667 38.7493 47.324 38.7547 47.2867 38.76C47.0734 38.8667 46.844 38.9947 46.5987 39.144C46.3534 39.2933 46.1214 39.4507 45.9027 39.616C45.6894 39.776 45.5134 39.936 45.3747 40.096C45.236 40.256 45.1667 40.4 45.1667 40.528C45.1667 40.672 45.2254 40.8027 45.3427 40.92C45.46 41.032 45.6094 41.136 45.7907 41.232C45.9774 41.3227 46.172 41.4107 46.3747 41.496C46.5827 41.5813 46.7774 41.6693 46.9587 41.76C47.1454 41.8453 47.2974 41.9413 47.4147 42.048C47.532 42.1547 47.5907 42.2747 47.5907 42.408C47.5907 42.5893 47.5294 42.7627 47.4067 42.928C47.284 43.0933 47.124 43.248 46.9267 43.392C46.7294 43.5307 46.5134 43.656 46.2787 43.768C46.044 43.88 45.812 43.976 45.5827 44.056C45.3587 44.1413 45.156 44.2053 44.9747 44.248C44.7934 44.2907 44.6574 44.312 44.5667 44.312Z" fill="white"/>
<path d="M160.34 98.34C160.12 98.34 159.907 98.3133 159.7 98.26C159.493 98.2133 159.307 98.1 159.14 97.92C158.973 97.74 158.837 97.46 158.73 97.08C158.623 96.6933 158.56 96.17 158.54 95.51C158.26 95.9967 157.95 96.4333 157.61 96.82C157.277 97.2067 156.94 97.5133 156.6 97.74C156.267 97.96 155.953 98.07 155.66 98.07C155.367 98.07 155.1 97.9967 154.86 97.85C154.627 97.7033 154.44 97.4567 154.3 97.11C154.167 96.7633 154.1 96.2933 154.1 95.7C154.1 95.24 154.14 94.7733 154.22 94.3C154.3 93.82 154.403 93.3633 154.53 92.93C154.657 92.49 154.793 92.0967 154.94 91.75C155.087 91.4033 155.23 91.13 155.37 90.93C155.517 90.73 155.643 90.63 155.75 90.63C156.003 90.63 156.19 90.6967 156.31 90.83C156.43 90.9567 156.49 91.12 156.49 91.32C156.49 91.4067 156.453 91.5767 156.38 91.83C156.307 92.0767 156.217 92.3767 156.11 92.73C156.003 93.0767 155.893 93.45 155.78 93.85C155.673 94.2433 155.583 94.6333 155.51 95.02C155.437 95.4067 155.4 95.76 155.4 96.08C155.4 96.2133 155.41 96.3267 155.43 96.42C155.457 96.5067 155.503 96.55 155.57 96.55C155.923 96.55 156.25 96.4167 156.55 96.15C156.857 95.8767 157.137 95.5167 157.39 95.07C157.65 94.6167 157.88 94.12 158.08 93.58C158.287 93.0333 158.47 92.4867 158.63 91.94C158.617 91.82 158.607 91.7033 158.6 91.59C158.6 91.4767 158.6 91.3533 158.6 91.22C158.6 91.0733 158.657 90.9167 158.77 90.75C158.883 90.5833 159.02 90.4433 159.18 90.33C159.347 90.21 159.503 90.15 159.65 90.15C159.817 90.15 159.953 90.2033 160.06 90.31C160.173 90.4167 160.23 90.6033 160.23 90.87C160.23 91.09 160.22 91.2733 160.2 91.42C160.187 91.56 160.163 91.6933 160.13 91.82C160.103 91.9467 160.073 92.09 160.04 92.25C160.013 92.4033 159.983 92.6033 159.95 92.85C159.923 93.0967 159.9 93.4133 159.88 93.8C159.867 94.1867 159.86 94.6733 159.86 95.26C159.86 95.3 159.86 95.34 159.86 95.38C159.86 95.4133 159.86 95.45 159.86 95.49C159.853 95.6767 159.857 95.8667 159.87 96.06C159.883 96.2533 159.933 96.4133 160.02 96.54C160.107 96.6667 160.26 96.73 160.48 96.73C160.72 96.73 160.947 96.5767 161.16 96.27C161.373 95.9633 161.563 95.5367 161.73 94.99C161.897 94.4367 162.04 93.79 162.16 93.05C162.28 92.3033 162.37 91.4967 162.43 90.63C162.45 90.3367 162.5 90.1167 162.58 89.97C162.667 89.8233 162.763 89.7267 162.87 89.68C162.977 89.6267 163.07 89.6 163.15 89.6C163.23 89.6 163.327 89.6133 163.44 89.64C163.553 89.6667 163.653 89.7433 163.74 89.87C163.827 89.9967 163.87 90.21 163.87 90.51C163.87 91.6567 163.787 92.6633 163.62 93.53C163.453 94.3967 163.237 95.1367 162.97 95.75C162.703 96.3633 162.41 96.86 162.09 97.24C161.777 97.62 161.467 97.8967 161.16 98.07C160.853 98.25 160.58 98.34 160.34 98.34ZM169.82 98.08C169.64 98.08 169.443 98.0367 169.23 97.95C169.023 97.8567 168.826 97.7 168.64 97.48C168.453 97.26 168.3 96.9567 168.18 96.57C168.06 96.1833 168 95.6933 168 95.1C168 94.66 168.056 94.2133 168.17 93.76C168.29 93.3 168.476 92.8667 168.73 92.46C168.983 92.0533 169.31 91.7 169.71 91.4C170.116 91.1 170.603 90.89 171.17 90.77C171.403 90.7167 171.67 90.6667 171.97 90.62C172.276 90.5667 172.586 90.52 172.9 90.48C173.213 90.4333 173.51 90.3967 173.79 90.37C174.076 90.3433 174.316 90.33 174.51 90.33C174.83 90.33 175.07 90.3733 175.23 90.46C175.39 90.5467 175.496 90.6467 175.55 90.76C175.603 90.8667 175.63 90.9633 175.63 91.05C175.63 91.1567 175.596 91.2633 175.53 91.37C175.47 91.4767 175.303 91.5467 175.03 91.58C174.97 91.5867 174.843 91.6033 174.65 91.63C174.456 91.65 174.223 91.68 173.95 91.72C173.683 91.76 173.4 91.8033 173.1 91.85C172.806 91.89 172.52 91.9333 172.24 91.98C171.966 92.02 171.73 92.0567 171.53 92.09C171.09 92.17 170.733 92.3033 170.46 92.49C170.186 92.67 169.973 92.8833 169.82 93.13C169.673 93.3767 169.566 93.6367 169.5 93.91C169.766 93.85 170.043 93.79 170.33 93.73C170.616 93.67 170.886 93.6167 171.14 93.57C171.4 93.5233 171.623 93.4867 171.81 93.46C171.996 93.4333 172.123 93.42 172.19 93.42C172.45 93.42 172.606 93.4533 172.66 93.52C172.72 93.5867 172.75 93.69 172.75 93.83C172.75 93.9567 172.636 94.1033 172.41 94.27C172.183 94.43 171.823 94.5933 171.33 94.76C170.836 94.9267 170.19 95.0733 169.39 95.2C169.39 95.2067 169.39 95.21 169.39 95.21C169.376 95.3433 169.366 95.4967 169.36 95.67C169.353 95.8367 169.35 96.0033 169.35 96.17C169.35 96.3367 169.36 96.4733 169.38 96.58C169.4 96.6867 169.436 96.74 169.49 96.74C169.636 96.74 169.84 96.71 170.1 96.65C170.36 96.59 170.633 96.5167 170.92 96.43C171.206 96.3433 171.473 96.26 171.72 96.18C171.966 96.0933 172.146 96.0267 172.26 95.98C172.426 95.9133 172.593 95.8467 172.76 95.78C172.933 95.7133 173.07 95.68 173.17 95.68C173.27 95.68 173.356 95.72 173.43 95.8C173.503 95.8733 173.526 95.9867 173.5 96.14C173.493 96.2067 173.423 96.3167 173.29 96.47C173.163 96.6167 172.986 96.7833 172.76 96.97C172.54 97.15 172.276 97.3267 171.97 97.5C171.67 97.6667 171.336 97.8067 170.97 97.92C170.61 98.0267 170.226 98.08 169.82 98.08ZM180.003 98.36C179.729 98.36 179.523 98.3167 179.383 98.23C179.249 98.15 179.159 98.0567 179.113 97.95C179.073 97.8433 179.053 97.76 179.053 97.7C179.053 97.5067 179.139 97.3467 179.313 97.22C179.493 97.0867 179.693 97.02 179.913 97.02C180.126 97.02 180.389 96.99 180.703 96.93C181.023 96.8633 181.359 96.77 181.713 96.65C182.073 96.53 182.416 96.38 182.743 96.2C183.076 96.02 183.366 95.8133 183.613 95.58C183.859 95.3467 184.029 95.09 184.123 94.81C183.976 94.7833 183.829 94.7633 183.683 94.75C183.536 94.73 183.389 94.72 183.243 94.72C182.749 94.72 182.239 94.7733 181.713 94.88C181.186 94.9867 180.663 95.09 180.143 95.19C180.016 95.2167 179.903 95.1933 179.803 95.12C179.789 95.26 179.776 95.39 179.763 95.51C179.756 95.6233 179.749 95.7467 179.743 95.88C179.729 96.2067 179.699 96.46 179.653 96.64C179.613 96.8133 179.566 96.9367 179.513 97.01C179.459 97.0833 179.403 97.1267 179.343 97.14C179.283 97.1533 179.226 97.16 179.173 97.16C179.153 97.16 179.139 97.16 179.133 97.16C179.013 97.16 178.899 97.13 178.793 97.07C178.686 97.01 178.599 96.8867 178.533 96.7C178.466 96.5067 178.433 96.2167 178.433 95.83C178.433 94.6033 178.566 93.5633 178.833 92.71C179.106 91.85 179.496 91.1967 180.003 90.75C180.516 90.2967 181.129 90.07 181.843 90.07C182.403 90.07 182.839 90.2233 183.153 90.53C183.466 90.83 183.623 91.2633 183.623 91.83C183.623 92.1167 183.566 92.4033 183.453 92.69C183.339 92.9767 183.179 93.26 182.973 93.54C183.099 93.5133 183.223 93.4933 183.343 93.48C183.463 93.46 183.576 93.45 183.683 93.45C184.309 93.45 184.773 93.5633 185.073 93.79C185.373 94.01 185.523 94.3067 185.523 94.68C185.523 95.0533 185.416 95.4033 185.203 95.73C184.996 96.0567 184.719 96.3567 184.373 96.63C184.033 96.8967 183.656 97.14 183.243 97.36C182.829 97.5733 182.416 97.7567 182.003 97.91C181.589 98.0567 181.206 98.1667 180.853 98.24C180.499 98.32 180.216 98.36 180.003 98.36ZM179.923 94.09C179.963 94.07 180.006 94.0567 180.053 94.05C180.653 93.95 181.113 93.8133 181.433 93.64C181.753 93.4667 181.973 93.25 182.093 92.99C182.213 92.73 182.273 92.42 182.273 92.06C182.273 91.9667 182.259 91.8667 182.233 91.76C182.206 91.6533 182.153 91.5633 182.073 91.49C181.999 91.41 181.886 91.37 181.733 91.37C181.226 91.37 180.829 91.6 180.543 92.06C180.263 92.5133 180.056 93.19 179.923 94.09Z" fill="white"/>
</svg>
